<svg xmlns="http://www.w3.org/2000/svg" xmlns:xlink="http://www.w3.org/1999/xlink" width="657.612" height="219.068" viewBox="0 0 493.209 164.301"><path stroke-width=".5802717900000001" stroke-miterlimit="10" fill="none" stroke="#000" d="M.314 1.44h492.497"/><symbol id="a"><path d="M.662.573V.12C.662.037.65.024.571.019V0h.28v.019C.778.024.764.038.764.109v.444c0 .071.013.084.087.09v.019H.652L.431.157.2.662H.002V.643C.084.638.097.626.097.553V.147C.097.044.083.025 0 .019V0h.235v.019C.158.023.141.046.141.147V.55L.392 0h.014l.256.573z"/></symbol><symbol id="b"><path d="M.383.174C.335.098.292.069.228.069c-.057 0-.1.029-.129.086a.299.299 0 0 0-.027.132H.38C.372.352.362.381.337.413A.164.164 0 0 1 .209.47.2.2 0 0 1 .074.418C.027.377 0 .306 0 .224 0 .086.072 0 .187 0c.095 0 .17.059.212.167L.383.174M.074.319C.085.397.119.434.18.434S.265.406.278.319H.074z"/></symbol><symbol id="c"><path d="M.242.46H.141v.116c0 .01-.001.013-.007.013L.114.561A.362.362 0 0 0 .017.454C.006.447 0 .44 0 .435 0 .432.001.43.004.428h.053V.127C.057.043.087 0 .146 0c.049 0 .087.024.12.076L.253.087C.232.062.215.052.193.052c-.037 0-.052.027-.052.09v.286h.101V.46z"/></symbol><symbol id="d"><path d="M.148.343C.19.389.22.406.259.406.309.406.334.37.334.3V.102C.334.034.324.021.266.015V0h.212v.015c-.054.01-.06.018-.06.087v.199C.418.406.376.46.295.46.236.46.194.436.148.376V.68L.143.683A1.724 1.724 0 0 0 .028.647L.001.639V.623a.045.045 0 0 0 .012.001C.056.624.064.616.064.573V.102C.064.032.058.023 0 .015V0h.216v.015C.158.021.148.033.148.102v.241z"/></symbol><symbol id="e"><path d="M.221.47C.091.47 0 .374 0 .236 0 .101.093 0 .219 0s.222.106.222.244C.441.375.349.47.221.47M.208.442C.292.442.351.346.351.209.351.096.306.028.231.028a.112.112 0 0 0-.097.064.42.42 0 0 0-.044.193c0 .095.047.157.118.157z"/></symbol><symbol id="f"><path d="m.317 0 .147.052v.016L.441.067C.405.067.397.078.397.124v.567L.392.693A1.702 1.702 0 0 0 .245.649V.633a.162.162 0 0 0 .022.001c.037 0 .046-.01.046-.051V.427C.275.459.248.47.208.47.093.47 0 .357 0 .215 0 .087.075 0 .185 0c.056 0 .094.02.128.067V.003L.317 0M.313.112C.313.105.306.093.296.082a.094.094 0 0 0-.072-.03c-.083 0-.138.08-.138.203 0 .113.049.187.125.187a.105.105 0 0 0 .102-.1v-.23z"/></symbol><use xlink:href="#a" transform="matrix(7.25347 0 0 -7.25347 4.753 14.204)"/><use xlink:href="#b" transform="matrix(7.25347 0 0 -7.25347 11.296 14.277)"/><use xlink:href="#c" transform="matrix(7.25347 0 0 -7.25347 14.43 14.277)"/><use xlink:href="#d" transform="matrix(7.25347 0 0 -7.25347 16.417 14.204)"/><use xlink:href="#e" transform="matrix(7.25347 0 0 -7.25347 20.188 14.277)"/><use xlink:href="#f" transform="matrix(7.25347 0 0 -7.25347 23.8 14.277)"/><path stroke-width=".28977186" stroke-miterlimit="10" fill="none" stroke="#000" d="M86.326 12.463V3.76"/><symbol id="g"><path d="M.379.643.405.642C.435.64.447.632.447.612.447.59.424.56.369.509L.192.348v.205c0 .073.011.084.092.09v.019H0V.643C.078.637.09.624.09.553V.12C.09.037.079.024 0 .019V0h.282v.019c-.078.005-.09.017-.09.09v.187l.026.021.106-.105C.4.137.454.066.454.042.454.028.44.021.412.02L.384.019V0h.305v.019C.637.02.623.03.532.127l-.233.25.19.188C.557.63.573.638.641.643v.019H.379V.643z"/></symbol><symbol id="h"><path d="M.097.109C.097.034.084.022 0 .019V0h.297v.019C.215.022.199.036.199.109v.444c0 .073.014.086.098.09v.019H0V.643C.085.638.097.627.097.553V.109z"/></symbol><symbol id="i"><path d="M.237.62v-.5C.237.035.226.024.143.019V0h.292v.019C.353.023.339.036.339.109V.62h.054C.507.62.529.602.552.492h.024L.57.662H.006L0 .492h.024C.048.601.071.62.183.62h.054z"/></symbol><symbol id="j"><path d="M0 .063V0h.246v.063H0z"/></symbol><symbol id="k"><path d="M.445.137.432.142C.395.085.382.076.337.076H.098l.168.176c.089.093.128.169.128.247 0 .1-.081.177-.185.177A.195.195 0 0 1 .065.614C.033.58.018.548.001.477L.022.472c.04.098.076.13.145.13A.134.134 0 0 0 .308.461C.308.383.262.29.178.201L0 .012V0h.39l.055.137z"/></symbol><symbol id="l"><path d="M.23.69A.183.183 0 0 1 .096.638C.038.582 0 .467 0 .35 0 .241.033.124.08.068A.186.186 0 0 1 .226 0c.051 0 .094.017.13.052.058.055.096.171.096.292C.452.549.361.69.23.69M.227.664C.311.664.356.551.356.342.356.133.312.026.226.026c-.086 0-.13.107-.13.315 0 .212.045.323.131.323z"/></symbol><symbol id="m"><path d="M.18.676 0 .585V.571l.027.011a.144.144 0 0 0 .045.011c.021 0 .03-.015.03-.047V.093C.102.06.094.037.078.028.063.019.049.016.007.015V0h.276v.015C.204.016.188.026.188.074v.6L.18.676z"/></symbol><symbol id="n"><path d="M.149.597h.196c.016 0 .02.002.023.009l.038.089-.009.007C.382.681.372.676.351.676H.142L.033.439.032.434c0-.005.004-.008.012-.008a.39.39 0 0 0 .113-.02C.272.369.325.307.325.208.325.112.264.037.186.037c-.02 0-.037.007-.067.029C.087.089.064.099.043.099.014.099 0 .087 0 .062 0 .024.047 0 .122 0c.084 0 .156.027.206.078a.233.233 0 0 1 .067.178.212.212 0 0 1-.069.168C.282.468.225.491.107.512l.042.085z"/></symbol><use xlink:href="#g" transform="matrix(7.25347 0 0 -7.25347 149.29 9.853)"/><use xlink:href="#h" transform="matrix(7.25347 0 0 -7.25347 154.41 9.853)"/><use xlink:href="#i" transform="matrix(7.25347 0 0 -7.25347 156.819 9.853)"/><use xlink:href="#i" transform="matrix(7.25347 0 0 -7.25347 161.25 9.853)"/><use xlink:href="#h" transform="matrix(7.25347 0 0 -7.25347 165.69 9.853)"/><use xlink:href="#j" transform="matrix(7.25347 0 0 -7.25347 168.257 8.445)"/><use xlink:href="#k" transform="matrix(7.25347 0 0 -7.25347 170.608 9.853)"/><use xlink:href="#l" transform="matrix(7.25347 0 0 -7.25347 174.19 9.954)"/><use xlink:href="#m" transform="matrix(7.25347 0 0 -7.25347 178.449 9.853)"/><use xlink:href="#n" transform="matrix(7.25347 0 0 -7.25347 181.502 9.954)"/><path stroke-width=".28977186" stroke-miterlimit="10" fill="none" stroke="#000" d="M247.613 12.463V3.76"/><symbol id="o"><path d="M.159.46.004.405V.39l.008.001a.224.224 0 0 0 .034.003C.07.394.079.378.079.334V.102C.079.03.069.019 0 .015V0h.237v.015C.171.02.163.03.163.102v.355L.159.46M.112.683a.051.051 0 0 1-.05-.051.05.05 0 0 1 .05-.051.05.05 0 0 1 .052.051.051.051 0 0 1-.052.051z"/></symbol><symbol id="p"><path d="M0 .623h.006a.398.398 0 0 0 .031.002C.069.625.079.611.079.564V.087C.079.033.065.02.002.015V0h.236v.015C.175.019.163.029.163.084v.597L.159.683A1.99 1.99 0 0 0 0 .639V.623z"/></symbol><symbol id="q"><path d="M.15.691.145.693A1.45 1.45 0 0 0 .029.657L0 .649V.633l.017.001c.04 0 .049-.009.049-.051V.064C.066.033.151 0 .231 0c.132 0 .234.11.234.253C.465.376.389.47.289.47.228.47.17.434.15.385v.306m0-.359c0 .039.047.075.099.075.078 0 .128-.078.128-.2C.377.096.329.032.247.032.195.032.15.055.15.08v.252z"/></symbol><symbol id="r"><path d="M.47.06H.465C.419.06.408.071.408.117V.46H.25V.443C.312.44.324.43.324.38V.145C.324.117.319.103.305.092A.141.141 0 0 0 .217.058C.178.058.146.092.146.134V.46H0V.446C.048.443.062.428.062.382V.13C.062.051.11 0 .183 0a.15.15 0 0 1 .103.043l.043.043V.003L.333.001c.05.02.086.031.137.045V.06z"/></symbol><symbol id="s"><path d="M.002.39a.15.15 0 0 0 .035.004c.025 0 .034-.016.034-.06v-.25C.071.034.064.027 0 .015V0h.24v.015C.172.018.155.033.155.09v.225c0 .032.043.082.07.082C.231.397.24.392.251.382c.016-.014.027-.02.04-.02.024 0 .039.017.039.045C.33.44.309.46.275.46.233.46.204.437.155.366v.092L.15.46A1.697 1.697 0 0 0 .002.406V.39z"/></symbol><symbol id="t"><path d="M.461.668H.326V.653C.358.653.374.644.374.628A.045.045 0 0 0 .37.611L.273.335.158.588a.102.102 0 0 0-.01.038c0 .018.015.025.058.027v.015H0V.654C.026.65.043.639.051.622L.165.376.168.368l.015-.03A.319.319 0 0 0 .227.237a.407.407 0 0 0-.04-.108C.173.103.151.084.137.084a.06.06 0 0 0-.025.007.152.152 0 0 1-.053.011.044.044 0 0 1-.043-.044C.016.025.048 0 .09 0c.067 0 .115.056.169.2l.154.408C.426.64.437.65.461.653v.015z"/></symbol><use xlink:href="#a" transform="matrix(7.25347 0 0 -7.25347 291.983 9.853)"/><use xlink:href="#o" transform="matrix(7.25347 0 0 -7.25347 298.46 9.853)"/><use xlink:href="#f" transform="matrix(7.25347 0 0 -7.25347 300.557 9.925)"/><use xlink:href="#f" transform="matrix(7.25347 0 0 -7.25347 304.184 9.925)"/><use xlink:href="#p" transform="matrix(7.25347 0 0 -7.25347 307.752 9.853)"/><use xlink:href="#b" transform="matrix(7.25347 0 0 -7.25347 309.812 9.925)"/><use xlink:href="#q" transform="matrix(7.25347 0 0 -7.25347 312.873 9.925)"/><use xlink:href="#r" transform="matrix(7.25347 0 0 -7.25347 316.398 9.925)"/><use xlink:href="#s" transform="matrix(7.25347 0 0 -7.25347 319.996 9.853)"/><use xlink:href="#t" transform="matrix(7.25347 0 0 -7.25347 322.477 11.434)"/><path stroke-width=".28977186" stroke-miterlimit="10" fill="none" stroke="#000" d="M370.285 12.463V3.76"/><symbol id="u"><path d="M.585.169H.557C.507.061.464.037.321.037H.294C.245.037.203.042.196.049.191.052.189.063.189.08v.247h.154C.425.327.44.314.453.231h.023v.232H.453C.446.422.442.407.431.393.418.376.39.368.343.368H.189V.59c0 .028.006.034.033.034h.135C.47.624.492.609.509.519h.025L.531.662H0V.643C.074.637.087.623.087.553V.109C.087.039.073.024 0 .019V0h.54l.045.169z"/></symbol><symbol id="v"><path d="M.19.359v.194c0 .072.011.083.088.09v.019H0V.643C.077.636.088.625.088.553V.12C.088.036.078.024 0 .019V0h.278v.019C.203.025.19.038.19.109v.206h.303V.12C.493.036.483.024.405.019V0h.278v.019C.608.025.595.038.595.109v.444c0 .072.011.083.088.09v.019H.405V.643C.482.636.493.625.493.553V.359H.19z"/></symbol><symbol id="w"><path d="M.11.344A.287.287 0 0 0 .216.333.152.152 0 0 0 .317.185C.317.101.26.036.186.036.159.036.139.043.102.067.072.085.055.092.038.092.015.092 0 .078 0 .057 0 .022.043 0 .113 0 .19 0 .269.026.316.067a.215.215 0 0 1 .073.166.19.19 0 0 1-.045.129.208.208 0 0 1-.083.053C.33.462.355.499.355.553.355.634.291.69.199.69a.191.191 0 0 1-.13-.049C.039.614.024.588.002.528L.017.524C.058.597.103.63.166.63c.065 0 .11-.044.11-.107a.14.14 0 0 0-.04-.097A.29.29 0 0 0 .11.357V.344z"/></symbol><symbol id="x"><path d="M.088.109C.088.037.076.024 0 .019V0h.284C.4 0 .505.033.567.089a.328.328 0 0 1 .102.245c0 .09-.03.168-.085.223C.516.626.407.662.27.662H0V.643C.079.636.088.627.088.553V.109M.19.586c0 .031.011.039.052.039a.337.337 0 0 0 .199-.05A.286.286 0 0 0 .56.327C.56.209.519.125.438.078A.376.376 0 0 0 .242.037C.202.037.19.046.19.078v.508z"/></symbol><use xlink:href="#u" transform="matrix(7.25347 0 0 -7.25347 420.225 9.853)"/><use xlink:href="#i" transform="matrix(7.25347 0 0 -7.25347 424.693 9.853)"/><use xlink:href="#v" transform="matrix(7.25347 0 0 -7.25347 429.14 9.853)"/><use xlink:href="#w" transform="matrix(7.25347 0 0 -7.25347 434.55 9.954)"/><use xlink:href="#x" transform="matrix(7.25347 0 0 -7.25347 437.981 9.853)"/><path stroke-width=".28977186" stroke-miterlimit="10" fill="none" stroke="#000" d="M86.326 21.168v-8.704"/><symbol id="y"><path d="M0 .398a.067.067 0 0 0 .027.004C.055.402.064.387.064.338V.09C.064.033.053.019.002.015V0h.212v.015C.163.019.148.031.148.067v.281c.048.045.07.057.103.057C.3.405.324.374.324.308V.099C.324.036.311.019.261.015V0h.208v.015C.42.02.408.032.408.081V.31C.408.404.364.46.29.46.244.46.213.443.145.379v.079L.138.46A1.866 1.866 0 0 0 0 .415V.398z"/></symbol><symbol id="z"><path d="M.373.166C.325.096.289.072.232.072c-.091 0-.155.08-.155.195 0 .103.055.174.136.174C.249.441.262.43.272.393L.278.371C.286.343.304.325.325.325c.026 0 .048.019.048.042C.373.423.303.47.219.47.17.47.119.45.078.414A.249.249 0 0 1 0 .223C0 .093.079 0 .19 0a.18.18 0 0 1 .121.047.335.335 0 0 1 .076.11L.373.166z"/></symbol><symbol id="A"><path d="M.405.076C.388.062.376.057.361.057c-.023 0-.03.014-.03.058V.31c0 .052-.005.081-.02.105C.289.451.246.47.187.47.093.47.019.421.019.358c0-.023.02-.043.043-.043.024 0 .045.02.045.042L.105.373a.112.112 0 0 0-.003.024c0 .027.032.049.072.049C.223.446.25.417.25.363V.302C.096.24.079.232.036.194A.121.121 0 0 1 0 .107C0 .044.044 0 .105 0 .149 0 .19.021.251.073.256.021.274 0 .315 0c.034 0 .055.012.09.05v.026M.25.133C.25.102.245.093.224.081A.158.158 0 0 0 .151.058C.116.058.088.092.088.135v.004c0 .059.041.095.162.139V.133z"/></symbol><use xlink:href="#y" transform="matrix(7.25347 0 0 -7.25347 107.096 18.557)"/><use xlink:href="#e" transform="matrix(7.25347 0 0 -7.25347 110.817 18.63)"/><use xlink:href="#y" transform="matrix(7.25347 0 0 -7.25347 114.35 18.557)"/><use xlink:href="#j" transform="matrix(7.25347 0 0 -7.25347 118.143 17.15)"/><use xlink:href="#e" transform="matrix(7.25347 0 0 -7.25347 120.486 18.63)"/><use xlink:href="#z" transform="matrix(7.25347 0 0 -7.25347 124.084 18.63)"/><use xlink:href="#z" transform="matrix(7.25347 0 0 -7.25347 127.304 18.63)"/><use xlink:href="#p" transform="matrix(7.25347 0 0 -7.25347 130.481 18.557)"/><use xlink:href="#r" transform="matrix(7.25347 0 0 -7.25347 132.425 18.63)"/><use xlink:href="#f" transform="matrix(7.25347 0 0 -7.25347 136.183 18.63)"/><use xlink:href="#b" transform="matrix(7.25347 0 0 -7.25347 139.795 18.63)"/><use xlink:href="#f" transform="matrix(7.25347 0 0 -7.25347 143.03 18.63)"/><use xlink:href="#A" transform="matrix(7.25347 0 0 -7.25347 203.858 18.63)"/><use xlink:href="#p" transform="matrix(7.25347 0 0 -7.25347 206.948 18.557)"/><use xlink:href="#p" transform="matrix(7.25347 0 0 -7.25347 208.964 18.557)"/><path stroke-width=".28977186" stroke-miterlimit="10" fill="none" stroke="#000" d="M247.613 21.168v-8.704"/><use xlink:href="#y" transform="matrix(7.25347 0 0 -7.25347 258.73 18.557)"/><use xlink:href="#e" transform="matrix(7.25347 0 0 -7.25347 262.451 18.63)"/><use xlink:href="#y" transform="matrix(7.25347 0 0 -7.25347 265.983 18.557)"/><use xlink:href="#j" transform="matrix(7.25347 0 0 -7.25347 269.777 17.15)"/><use xlink:href="#e" transform="matrix(7.25347 0 0 -7.25347 272.12 18.63)"/><use xlink:href="#z" transform="matrix(7.25347 0 0 -7.25347 275.718 18.63)"/><use xlink:href="#z" transform="matrix(7.25347 0 0 -7.25347 278.938 18.63)"/><use xlink:href="#p" transform="matrix(7.25347 0 0 -7.25347 282.115 18.557)"/><use xlink:href="#r" transform="matrix(7.25347 0 0 -7.25347 284.06 18.63)"/><use xlink:href="#f" transform="matrix(7.25347 0 0 -7.25347 287.816 18.63)"/><use xlink:href="#b" transform="matrix(7.25347 0 0 -7.25347 291.429 18.63)"/><use xlink:href="#f" transform="matrix(7.25347 0 0 -7.25347 294.664 18.63)"/><use xlink:href="#A" transform="matrix(7.25347 0 0 -7.25347 336.182 18.63)"/><use xlink:href="#p" transform="matrix(7.25347 0 0 -7.25347 339.272 18.557)"/><use xlink:href="#p" transform="matrix(7.25347 0 0 -7.25347 341.289 18.557)"/><path stroke-width=".28977186" stroke-miterlimit="10" fill="none" stroke="#000" d="M370.285 21.168v-8.704"/><use xlink:href="#y" transform="matrix(7.25347 0 0 -7.25347 381.4 18.557)"/><use xlink:href="#e" transform="matrix(7.25347 0 0 -7.25347 385.121 18.63)"/><use xlink:href="#y" transform="matrix(7.25347 0 0 -7.25347 388.654 18.557)"/><use xlink:href="#j" transform="matrix(7.25347 0 0 -7.25347 392.447 17.15)"/><use xlink:href="#e" transform="matrix(7.25347 0 0 -7.25347 394.79 18.63)"/><use xlink:href="#z" transform="matrix(7.25347 0 0 -7.25347 398.388 18.63)"/><use xlink:href="#z" transform="matrix(7.25347 0 0 -7.25347 401.609 18.63)"/><use xlink:href="#p" transform="matrix(7.25347 0 0 -7.25347 404.786 18.557)"/><use xlink:href="#r" transform="matrix(7.25347 0 0 -7.25347 406.73 18.63)"/><use xlink:href="#f" transform="matrix(7.25347 0 0 -7.25347 410.487 18.63)"/><use xlink:href="#b" transform="matrix(7.25347 0 0 -7.25347 414.099 18.63)"/><use xlink:href="#f" transform="matrix(7.25347 0 0 -7.25347 417.334 18.63)"/><use xlink:href="#A" transform="matrix(7.25347 0 0 -7.25347 458.86 18.63)"/><use xlink:href="#p" transform="matrix(7.25347 0 0 -7.25347 461.95 18.557)"/><use xlink:href="#p" transform="matrix(7.25347 0 0 -7.25347 463.967 18.557)"/><path stroke-width=".21769292999999998" stroke-miterlimit="10" fill="none" stroke="#000" d="M90.098 22.526h73.245M170.597 22.526h73.536M251.386 22.526h53.937M312.576 22.526h54.226M374.057 22.526h53.937M435.247 22.526h53.936"/><path stroke-width=".28977186" stroke-miterlimit="10" fill="none" stroke="#000" d="M86.326 33.368v-8.704"/><symbol id="B"><path d="M.442.606v.039H.365a.152.152 0 0 0-.055.01L.288.663a.23.23 0 0 1-.08.015.164.164 0 0 1-.167-.163c0-.063.027-.101.093-.134a1.636 1.636 0 0 0-.043-.04C.058.312.045.292.045.272c0-.021.012-.033.053-.053C.027.167 0 .134 0 .097 0 .044.078 0 .173 0c.075 0 .153.026.205.068.038.031.055.063.055.101 0 .062-.047.104-.121.107L.183.282C.13.284.105.293.105.309c0 .02.033.055.06.063L.184.37A.169.169 0 0 1 .33.409c.033.028.048.063.048.113a.192.192 0 0 1-.019.084h.083M.119.216C.152.209.232.203.281.203.372.203.405.19.405.154.405.096.329.057.216.057.128.057.07.086.07.13c0 .023.007.036.049.086m.005.34c0 .059.028.094.074.094C.229.65.255.633.271.603a.28.28 0 0 0 .03-.12C.301.427.272.392.226.392c-.06 0-.102.065-.102.161v.003z"/></symbol><symbol id="C"><path d="M.289.45H.166v.116c0 .058.019.089.057.089.021 0 .035-.01.053-.039C.292.59.304.58.321.58c.023 0 .042.018.042.041 0 .036-.044.062-.104.062C.197.683.144.656.118.61.092.566.084.53.083.45H.001V.418h.082V.104C.083.031.072.019 0 .015V0h.26v.015C.178.018.167.029.167.104v.314h.122V.45z"/></symbol><use xlink:href="#x" transform="matrix(7.25347 0 0 -7.25347 90.939 30.758)"/><use xlink:href="#m" transform="matrix(7.25347 0 0 -7.25347 96.865 30.758)"/><use xlink:href="#j" transform="matrix(7.25347 0 0 -7.25347 99.97 29.35)"/><use xlink:href="#q" transform="matrix(7.25347 0 0 -7.25347 102.124 30.83)"/><use xlink:href="#B" transform="matrix(7.25347 0 0 -7.25347 105.932 32.339)"/><use xlink:href="#x" transform="matrix(7.25347 0 0 -7.25347 118.176 30.758)"/><use xlink:href="#m" transform="matrix(7.25347 0 0 -7.25347 124.102 30.758)"/><use xlink:href="#j" transform="matrix(7.25347 0 0 -7.25347 127.206 29.35)"/><use xlink:href="#C" transform="matrix(7.25347 0 0 -7.25347 129.484 30.758)"/><use xlink:href="#B" transform="matrix(7.25347 0 0 -7.25347 131.957 32.339)"/><use xlink:href="#x" transform="matrix(7.25347 0 0 -7.25347 144.201 30.758)"/><use xlink:href="#m" transform="matrix(7.25347 0 0 -7.25347 150.127 30.758)"/><use xlink:href="#j" transform="matrix(7.25347 0 0 -7.25347 153.232 29.35)"/><use xlink:href="#A" transform="matrix(7.25347 0 0 -7.25347 155.633 30.83)"/><use xlink:href="#p" transform="matrix(7.25347 0 0 -7.25347 158.723 30.758)"/><use xlink:href="#p" transform="matrix(7.25347 0 0 -7.25347 160.74 30.758)"/><use xlink:href="#x" transform="matrix(7.25347 0 0 -7.25347 171.438 30.758)"/><use xlink:href="#m" transform="matrix(7.25347 0 0 -7.25347 177.364 30.758)"/><use xlink:href="#j" transform="matrix(7.25347 0 0 -7.25347 180.468 29.35)"/><use xlink:href="#q" transform="matrix(7.25347 0 0 -7.25347 182.623 30.83)"/><use xlink:href="#B" transform="matrix(7.25347 0 0 -7.25347 186.43 32.339)"/><use xlink:href="#x" transform="matrix(7.25347 0 0 -7.25347 198.675 30.758)"/><use xlink:href="#m" transform="matrix(7.25347 0 0 -7.25347 204.6 30.758)"/><use xlink:href="#j" transform="matrix(7.25347 0 0 -7.25347 207.705 29.35)"/><use xlink:href="#C" transform="matrix(7.25347 0 0 -7.25347 209.983 30.758)"/><use xlink:href="#B" transform="matrix(7.25347 0 0 -7.25347 212.456 32.339)"/><use xlink:href="#x" transform="matrix(7.25347 0 0 -7.25347 224.7 30.758)"/><use xlink:href="#m" transform="matrix(7.25347 0 0 -7.25347 230.626 30.758)"/><use xlink:href="#j" transform="matrix(7.25347 0 0 -7.25347 233.73 29.35)"/><use xlink:href="#A" transform="matrix(7.25347 0 0 -7.25347 236.132 30.83)"/><use xlink:href="#p" transform="matrix(7.25347 0 0 -7.25347 239.221 30.758)"/><use xlink:href="#p" transform="matrix(7.25347 0 0 -7.25347 241.238 30.758)"/><path stroke-width=".28977186" stroke-miterlimit="10" fill="none" stroke="#000" d="M247.613 33.368v-8.704"/><symbol id="D"><path d="M0 .662V.643C.084.638.096.627.096.553V.109C.096.035.083.022 0 .019V0h.334C.412 0 .483.021.52.055A.166.166 0 0 1 .576.18a.153.153 0 0 1-.049.113C.497.32.47.332.405.348c.052.013.073.023.097.044.025.022.04.059.04.1 0 .112-.089.17-.262.17H0M.198.326a.473.473 0 0 0 .179-.02C.434.282.461.242.461.179.461.125.44.086.4.063A.276.276 0 0 0 .261.037C.212.037.198.046.198.078v.248m0 .04v.229c0 .021.007.03.022.03h.044C.379.625.44.577.44.488.44.41.387.366.293.366H.198z"/></symbol><symbol id="E"><path d="M.055.111A.057.057 0 0 1 0 .054C0 .025.025 0 .054 0c.031 0 .057.025.057.054a.057.057 0 0 1-.056.057z"/></symbol><symbol id="F"><path d="M.691.019C.646.022.636.032.601.106L.352.674h-.02L.124.183C.06.037.048.021 0 .019V0h.198v.019C.15.019.13.032.13.06c0 .012.003.026.008.039l.046.117h.262L.487.12A.198.198 0 0 0 .506.053C.506.028.489.02.436.019V0h.255v.019m-.49.238.115.275.116-.275H.201z"/></symbol><symbol id="G"><path d="M.458.464H.319V.449C.351.446.366.436.366.417A.08.08 0 0 0 .36.387L.261.128.159.384A.103.103 0 0 0 .15.421c0 .018.011.025.046.028v.015H0V.449C.038.447.045.437.091.334l.12-.287.008-.021C.225.008.231 0 .237 0 .243 0 .25.013.265.05l.128.321c.029.068.035.075.065.078v.015z"/></symbol><use xlink:href="#D" transform="matrix(7.25347 0 0 -7.25347 252.234 30.758)"/><use xlink:href="#A" transform="matrix(7.25347 0 0 -7.25347 257.217 30.83)"/><use xlink:href="#f" transform="matrix(7.25347 0 0 -7.25347 260.365 30.83)"/><use xlink:href="#k" transform="matrix(7.25347 0 0 -7.25347 265.827 30.758)"/><use xlink:href="#E" transform="matrix(7.25347 0 0 -7.25347 269.744 30.837)"/><use xlink:href="#l" transform="matrix(7.25347 0 0 -7.25347 271.224 30.86)"/><use xlink:href="#F" transform="matrix(7.25347 0 0 -7.25347 283.49 30.758)"/><use xlink:href="#G" transform="matrix(7.25347 0 0 -7.25347 288.219 30.86)"/><use xlink:href="#B" transform="matrix(7.25347 0 0 -7.25347 291.91 32.339)"/><use xlink:href="#u" transform="matrix(7.25347 0 0 -7.25347 295.421 30.758)"/><use xlink:href="#s" transform="matrix(7.25347 0 0 -7.25347 299.802 30.758)"/><use xlink:href="#s" transform="matrix(7.25347 0 0 -7.25347 302.218 30.758)"/><use xlink:href="#D" transform="matrix(7.25347 0 0 -7.25347 313.424 30.758)"/><use xlink:href="#A" transform="matrix(7.25347 0 0 -7.25347 318.407 30.83)"/><use xlink:href="#f" transform="matrix(7.25347 0 0 -7.25347 321.555 30.83)"/><use xlink:href="#k" transform="matrix(7.25347 0 0 -7.25347 327.017 30.758)"/><use xlink:href="#E" transform="matrix(7.25347 0 0 -7.25347 330.934 30.837)"/><use xlink:href="#l" transform="matrix(7.25347 0 0 -7.25347 332.414 30.86)"/><use xlink:href="#F" transform="matrix(7.25347 0 0 -7.25347 344.68 30.758)"/><use xlink:href="#G" transform="matrix(7.25347 0 0 -7.25347 349.409 30.86)"/><use xlink:href="#B" transform="matrix(7.25347 0 0 -7.25347 353.1 32.339)"/><use xlink:href="#u" transform="matrix(7.25347 0 0 -7.25347 356.612 30.758)"/><use xlink:href="#s" transform="matrix(7.25347 0 0 -7.25347 360.993 30.758)"/><use xlink:href="#s" transform="matrix(7.25347 0 0 -7.25347 363.408 30.758)"/><path stroke-width=".28977186" stroke-miterlimit="10" fill="none" stroke="#000" d="M370.285 33.368v-8.704"/><use xlink:href="#D" transform="matrix(7.25347 0 0 -7.25347 374.905 30.758)"/><use xlink:href="#A" transform="matrix(7.25347 0 0 -7.25347 379.888 30.83)"/><use xlink:href="#f" transform="matrix(7.25347 0 0 -7.25347 383.036 30.83)"/><use xlink:href="#m" transform="matrix(7.25347 0 0 -7.25347 389.086 30.758)"/><use xlink:href="#E" transform="matrix(7.25347 0 0 -7.25347 392.415 30.837)"/><use xlink:href="#l" transform="matrix(7.25347 0 0 -7.25347 393.895 30.86)"/><use xlink:href="#F" transform="matrix(7.25347 0 0 -7.25347 406.16 30.758)"/><use xlink:href="#G" transform="matrix(7.25347 0 0 -7.25347 410.89 30.86)"/><use xlink:href="#B" transform="matrix(7.25347 0 0 -7.25347 414.582 32.339)"/><use xlink:href="#u" transform="matrix(7.25347 0 0 -7.25347 418.092 30.758)"/><use xlink:href="#s" transform="matrix(7.25347 0 0 -7.25347 422.474 30.758)"/><use xlink:href="#s" transform="matrix(7.25347 0 0 -7.25347 424.889 30.758)"/><use xlink:href="#D" transform="matrix(7.25347 0 0 -7.25347 436.096 30.758)"/><use xlink:href="#A" transform="matrix(7.25347 0 0 -7.25347 441.079 30.83)"/><use xlink:href="#f" transform="matrix(7.25347 0 0 -7.25347 444.227 30.83)"/><use xlink:href="#m" transform="matrix(7.25347 0 0 -7.25347 450.276 30.758)"/><use xlink:href="#E" transform="matrix(7.25347 0 0 -7.25347 453.606 30.837)"/><use xlink:href="#l" transform="matrix(7.25347 0 0 -7.25347 455.085 30.86)"/><use xlink:href="#F" transform="matrix(7.25347 0 0 -7.25347 467.35 30.758)"/><use xlink:href="#G" transform="matrix(7.25347 0 0 -7.25347 472.08 30.86)"/><use xlink:href="#B" transform="matrix(7.25347 0 0 -7.25347 475.772 32.339)"/><use xlink:href="#u" transform="matrix(7.25347 0 0 -7.25347 479.283 30.758)"/><use xlink:href="#s" transform="matrix(7.25347 0 0 -7.25347 483.664 30.758)"/><use xlink:href="#s" transform="matrix(7.25347 0 0 -7.25347 486.08 30.758)"/><path stroke-width=".36257886" stroke-miterlimit="10" fill="none" stroke="#000" d="M.314 34.8h492.497"/><symbol id="H"><path d="M.642.019C.604.022.584.032.555.066L.349.319c.067.013.097.025.13.052A.147.147 0 0 1 .53.486c0 .043-.013.08-.039.109C.453.636.37.662.276.662H0V.643C.075.635.085.624.085.553V.12C.085.037.075.025 0 .019V0h.277v.019C.2.024.187.037.187.109v.197l.056.002L.481 0h.161v.019m-.455.57c0 .028.011.036.051.036.125 0 .183-.043.183-.137C.421.438.4.396.364.377.318.351.283.345.187.343v.246z"/></symbol><symbol id="I"><path d="M.264.324.26.46H.249L.247.458C.238.451.237.45.233.45a.071.071 0 0 0-.027.007.198.198 0 0 1-.07.012C.057.469 0 .418 0 .346 0 .29.032.25.117.202L.175.169C.21.149.227.125.227.094.227.05.195.022.144.022A.11.11 0 0 0 .06.057C.039.082.03.105.017.162H.001V.006h.013c.007.01.011.012.023.012A.196.196 0 0 0 .083.01.39.39 0 0 1 .156 0c.077 0 .141.058.141.128 0 .05-.024.083-.084.119L.105.311a.078.078 0 0 0-.043.068c0 .04.031.068.077.068.057 0 .087-.034.11-.123h.015z"/></symbol><symbol id="J"><path d="M.681.673H.476V.654C.531.651.549.64.549.612A.23.23 0 0 0 .53.539L.383.172.232.51a.358.358 0 0 0-.041.111c0 .019.014.029.046.031l.029.002v.019H0V.654C.049.652.063.638.106.549L.352 0h.015l.222.561c.033.079.044.09.092.093v.019z"/></symbol><symbol id="K"><path d="M.592.464.583.69H.562C.556.669.54.657.52.657a.117.117 0 0 0-.039.009.475.475 0 0 1-.146.024.347.347 0 0 1-.227-.086A.344.344 0 0 1 0 .339C0 .246.03.16.081.103A.341.341 0 0 1 .332 0c.113 0 .212.046.273.127L.587.145C.513.074.447.044.364.044a.24.24 0 0 0-.162.058C.147.151.116.241.116.352c0 .181.093.298.238.298A.207.207 0 0 0 .503.589.249.249 0 0 0 .569.464h.023z"/></symbol><symbol id="L"><path d="M.234.385C.333.438.368.48.368.548.368.63.296.69.196.69.087.69.006.623.006.532.006.467.025.438.13.346.022.264 0 .233 0 .165 0 .068.079 0 .192 0c.12 0 .197.066.197.169 0 .077-.034.126-.155.216M.216.282C.289.23.313.194.313.138a.105.105 0 0 0-.11-.11C.127.028.076.086.076.173c0 .064.022.106.08.153l.06-.044M.205.403C.116.461.08.507.08.563c0 .058.045.099.108.099.068 0 .111-.044.111-.113C.299.492.271.447.214.409L.205.403z"/></symbol><use xlink:href="#H" transform="matrix(7.25347 0 0 -7.25347 202.345 43.104)" fill="#ec008c"/><use xlink:href="#e" transform="matrix(7.25347 0 0 -7.25347 207.27 43.176)" fill="#ec008c"/><use xlink:href="#q" transform="matrix(7.25347 0 0 -7.25347 210.709 43.176)" fill="#ec008c"/><use xlink:href="#r" transform="matrix(7.25347 0 0 -7.25347 214.234 43.176)" fill="#ec008c"/><use xlink:href="#I" transform="matrix(7.25347 0 0 -7.25347 218.165 43.176)" fill="#ec008c"/><use xlink:href="#c" transform="matrix(7.25347 0 0 -7.25347 220.711 43.176)" fill="#ec008c"/><use xlink:href="#J" transform="matrix(7.25347 0 0 -7.25347 224.563 43.183)" fill="#ec008c"/><use xlink:href="#o" transform="matrix(7.25347 0 0 -7.25347 229.364 43.104)" fill="#ec008c"/><use xlink:href="#I" transform="matrix(7.25347 0 0 -7.25347 231.635 43.176)" fill="#ec008c"/><use xlink:href="#o" transform="matrix(7.25347 0 0 -7.25347 234.203 43.104)" fill="#ec008c"/><use xlink:href="#e" transform="matrix(7.25347 0 0 -7.25347 236.313 43.176)" fill="#ec008c"/><use xlink:href="#y" transform="matrix(7.25347 0 0 -7.25347 239.846 43.104)" fill="#ec008c"/><use xlink:href="#K" transform="matrix(7.25347 0 0 -7.25347 245.373 43.205)" fill="#ec008c"/><use xlink:href="#d" transform="matrix(7.25347 0 0 -7.25347 250.073 43.104)" fill="#ec008c"/><use xlink:href="#A" transform="matrix(7.25347 0 0 -7.25347 253.903 43.176)" fill="#ec008c"/><use xlink:href="#p" transform="matrix(7.25347 0 0 -7.25347 256.993 43.104)" fill="#ec008c"/><use xlink:href="#p" transform="matrix(7.25347 0 0 -7.25347 259.01 43.104)" fill="#ec008c"/><use xlink:href="#b" transform="matrix(7.25347 0 0 -7.25347 261.07 43.176)" fill="#ec008c"/><use xlink:href="#y" transform="matrix(7.25347 0 0 -7.25347 264.225 43.104)" fill="#ec008c"/><use xlink:href="#B" transform="matrix(7.25347 0 0 -7.25347 267.938 44.685)" fill="#ec008c"/><use xlink:href="#b" transform="matrix(7.25347 0 0 -7.25347 271.543 43.176)" fill="#ec008c"/><use xlink:href="#k" transform="matrix(7.25347 0 0 -7.25347 276.614 43.104)" fill="#ec008c"/><use xlink:href="#l" transform="matrix(7.25347 0 0 -7.25347 280.197 43.205)" fill="#ec008c"/><use xlink:href="#m" transform="matrix(7.25347 0 0 -7.25347 284.455 43.104)" fill="#ec008c"/><use xlink:href="#L" transform="matrix(7.25347 0 0 -7.25347 287.682 43.205)" fill="#ec008c"/><path stroke-width=".28977186" stroke-miterlimit="10" fill="none" stroke="#000" d="M.314 45.86h492.497"/><symbol id="M"><path d="M.6 0v.526c0 .06.01.097.029.11.014.01.028.014.066.018v.019H.46V.654C.498.651.512.647.527.638.547.624.556.588.556.526V.189L.171.673H0V.654C.043.654.057.646.097.599V.158C.097.055.083.036 0 .03V.011h.235V.03C.158.034.141.057.141.158V.55L.583 0H.6z"/></symbol><symbol id="N"><path d="M.405.69H.384C.38.667.369.656.352.656a.117.117 0 0 0-.044.012.31.31 0 0 1-.106.022.185.185 0 0 1-.12-.046.16.16 0 0 1-.053-.125c0-.08.044-.136.156-.195A.409.409 0 0 0 .334.207.106.106 0 0 0 .348.149C.348.082.298.036.225.036.136.036.073.091.023.213H0L.03.001h.022C.053.02.065.034.08.034A.153.153 0 0 0 .127.023.322.322 0 0 1 .245 0C.36 0 .449.079.449.182.449.264.394.329.262.4.157.458.115.502.115.556c0 .055.042.093.104.093A.168.168 0 0 0 .341.594.228.228 0 0 0 .402.477h.025L.405.69z"/></symbol><use xlink:href="#x" transform="matrix(7.25347 0 0 -7.25347 4.782 52.098)"/><use xlink:href="#M" transform="matrix(7.25347 0 0 -7.25347 9.99 52.178)"/><use xlink:href="#j" transform="matrix(7.25347 0 0 -7.25347 15.423 50.69)"/><use xlink:href="#K" transform="matrix(7.25347 0 0 -7.25347 17.759 52.2)"/><use xlink:href="#N" transform="matrix(7.25347 0 0 -7.25347 22.698 52.2)"/><use xlink:href="#N" transform="matrix(7.25347 0 0 -7.25347 26.731 52.2)"/><path stroke-width=".28977186" stroke-miterlimit="10" fill="none" stroke="#000" d="M30.895 51.952h2.176"/><symbol id="O"><path d="M.327.69C.136.69 0 .546 0 .345 0 .251.032.16.086.102A.327.327 0 0 1 .321 0c.197 0 .333.14.333.341A.354.354 0 0 1 .57.585.32.32 0 0 1 .327.69m0-.036a.194.194 0 0 0 .128-.05C.509.555.54.461.54.342a.537.537 0 0 0-.033-.18.204.204 0 0 0-.049-.073.191.191 0 0 0-.259-.004C.147.131.114.232.114.343c0 .102.028.199.07.246a.188.188 0 0 0 .143.065z"/></symbol><symbol id="P"><path d="M.211.025H.125C.092.025.076.042.076.077v.672c0 .031.013.044.045.044h.09v.025H0V0h.211v.025z"/></symbol><use xlink:href="#H" transform="matrix(7.25347 0 0 -7.25347 33.194 52.098)"/><use xlink:href="#O" transform="matrix(7.25347 0 0 -7.25347 37.865 52.2)"/><use xlink:href="#D" transform="matrix(7.25347 0 0 -7.25347 42.98 52.098)"/><use xlink:href="#P" transform="matrix(7.25347 0 0 -7.25347 50.146 53.23)"/><symbol id="Q"><path d="M.429.67h-.37L0 .523.017.515C.06.583.078.596.133.596H.35L.152 0h.065l.212.654V.67z"/></symbol><use xlink:href="#m" transform="matrix(7.25347 0 0 -7.25347 52.728 52.098)" fill="#367dbd"/><use xlink:href="#Q" transform="matrix(7.25347 0 0 -7.25347 55.694 52.156)" fill="#367dbd"/><symbol id="R"><path d="M0 .025V0h.211v.818H0V.793h.086C.119.793.135.776.135.741V.069C.135.038.121.025.09.025H0z"/></symbol><use xlink:href="#R" transform="matrix(7.25347 0 0 -7.25347 59.423 53.23)"/><path stroke-width=".28977186" stroke-miterlimit="10" fill="none" stroke="#000" d="M86.326 54.709v-8.704"/><symbol id="S"><path d="M.46.231H.358v.445H.314L0 .231V.167h.281V0h.077v.167H.46v.064m-.18 0H.04l.24.343V.231z"/></symbol><symbol id="T"><path d="M.029 0a.432.432 0 0 1 .235.081c.104.076.165.2.165.335 0 .165-.092.282-.221.282C.089.698 0 .597 0 .462 0 .34.072.259.18.259c.055 0 .097.016.15.057A.374.374 0 0 0 .026.02L.029 0m.303.377C.332.357.328.348.317.339A.157.157 0 0 0 .216.302C.14.302.092.377.092.496a.26.26 0 0 0 .037.143A.09.09 0 0 0 .2.67C.287.67.332.584.332.416V.377z"/></symbol><symbol id="U"><path d="M.412.698a.436.436 0 0 1-.245-.08A.387.387 0 0 1 0 .293C0 .206.027.118.07.068A.198.198 0 0 1 .224 0c.124 0 .21.095.21.233 0 .128-.073.209-.188.209C.202.442.181.435.118.397a.346.346 0 0 0 .296.285L.412.698M.208.396C.294.396.344.324.344.199.344.089.305.028.235.028.147.028.093.122.093.277c0 .051.008.079.028.094a.145.145 0 0 0 .087.025z"/></symbol><use xlink:href="#k" transform="matrix(7.25347 0 0 -7.25347 93.96 52.098)"/><use xlink:href="#E" transform="matrix(7.25347 0 0 -7.25347 97.877 52.178)"/><use xlink:href="#k" transform="matrix(7.25347 0 0 -7.25347 99.4 52.098)"/><use xlink:href="#w" transform="matrix(7.25347 0 0 -7.25347 103.121 52.2)"/><use xlink:href="#S" transform="matrix(7.25347 0 0 -7.25347 120.457 52.098)"/><use xlink:href="#E" transform="matrix(7.25347 0 0 -7.25347 124.504 52.178)"/><use xlink:href="#T" transform="matrix(7.25347 0 0 -7.25347 126.028 52.258)"/><use xlink:href="#U" transform="matrix(7.25347 0 0 -7.25347 129.683 52.2)"/><use xlink:href="#k" transform="matrix(7.25347 0 0 -7.25347 147.222 52.098)"/><use xlink:href="#E" transform="matrix(7.25347 0 0 -7.25347 151.14 52.178)"/><use xlink:href="#U" transform="matrix(7.25347 0 0 -7.25347 152.691 52.2)"/><use xlink:href="#L" transform="matrix(7.25347 0 0 -7.25347 156.478 52.2)"/><use xlink:href="#k" transform="matrix(7.25347 0 0 -7.25347 174.459 52.098)"/><use xlink:href="#E" transform="matrix(7.25347 0 0 -7.25347 178.376 52.178)"/><use xlink:href="#w" transform="matrix(7.25347 0 0 -7.25347 179.993 52.2)"/><use xlink:href="#T" transform="matrix(7.25347 0 0 -7.25347 183.526 52.258)"/><use xlink:href="#n" transform="matrix(7.25347 0 0 -7.25347 201.101 52.2)"/><use xlink:href="#E" transform="matrix(7.25347 0 0 -7.25347 205.003 52.178)"/><use xlink:href="#Q" transform="matrix(7.25347 0 0 -7.25347 206.454 52.156)"/><use xlink:href="#m" transform="matrix(7.25347 0 0 -7.25347 210.74 52.098)"/><use xlink:href="#k" transform="matrix(7.25347 0 0 -7.25347 227.721 52.098)"/><use xlink:href="#E" transform="matrix(7.25347 0 0 -7.25347 231.638 52.178)"/><use xlink:href="#T" transform="matrix(7.25347 0 0 -7.25347 233.161 52.258)"/><use xlink:href="#S" transform="matrix(7.25347 0 0 -7.25347 236.658 52.098)"/><path stroke-width=".28977186" stroke-miterlimit="10" fill="none" stroke="#000" d="M247.613 54.709v-8.704"/><use xlink:href="#k" transform="matrix(7.25347 0 0 -7.25347 257.265 52.098)"/><use xlink:href="#k" transform="matrix(7.25347 0 0 -7.25347 260.891 52.098)"/><use xlink:href="#E" transform="matrix(7.25347 0 0 -7.25347 264.808 52.178)"/><use xlink:href="#L" transform="matrix(7.25347 0 0 -7.25347 266.52 52.2)"/><use xlink:href="#S" transform="matrix(7.25347 0 0 -7.25347 287.73 52.098)"/><use xlink:href="#E" transform="matrix(7.25347 0 0 -7.25347 291.777 52.178)"/><use xlink:href="#l" transform="matrix(7.25347 0 0 -7.25347 293.256 52.2)"/><use xlink:href="#S" transform="matrix(7.25347 0 0 -7.25347 296.796 52.098)"/><use xlink:href="#k" transform="matrix(7.25347 0 0 -7.25347 318.455 52.098)"/><use xlink:href="#L" transform="matrix(7.25347 0 0 -7.25347 322.27 52.2)"/><use xlink:href="#E" transform="matrix(7.25347 0 0 -7.25347 325.999 52.178)"/><use xlink:href="#w" transform="matrix(7.25347 0 0 -7.25347 327.616 52.2)"/><use xlink:href="#n" transform="matrix(7.25347 0 0 -7.25347 349.065 52.2)"/><use xlink:href="#E" transform="matrix(7.25347 0 0 -7.25347 352.967 52.178)"/><use xlink:href="#S" transform="matrix(7.25347 0 0 -7.25347 354.36 52.098)"/><use xlink:href="#L" transform="matrix(7.25347 0 0 -7.25347 358.306 52.2)"/><path stroke-width=".28977186" stroke-miterlimit="10" fill="none" stroke="#000" d="M370.285 54.709v-8.704"/><use xlink:href="#k" transform="matrix(7.25347 0 0 -7.25347 379.935 52.098)"/><use xlink:href="#E" transform="matrix(7.25347 0 0 -7.25347 383.852 52.178)"/><use xlink:href="#U" transform="matrix(7.25347 0 0 -7.25347 385.404 52.2)"/><use xlink:href="#T" transform="matrix(7.25347 0 0 -7.25347 389.002 52.258)"/><use xlink:href="#l" transform="matrix(7.25347 0 0 -7.25347 410.487 52.2)"/><use xlink:href="#E" transform="matrix(7.25347 0 0 -7.25347 414.447 52.178)"/><use xlink:href="#k" transform="matrix(7.25347 0 0 -7.25347 415.97 52.098)"/><use xlink:href="#k" transform="matrix(7.25347 0 0 -7.25347 419.597 52.098)"/><use xlink:href="#w" transform="matrix(7.25347 0 0 -7.25347 441.22 52.2)"/><use xlink:href="#E" transform="matrix(7.25347 0 0 -7.25347 445.042 52.178)"/><use xlink:href="#l" transform="matrix(7.25347 0 0 -7.25347 446.522 52.2)"/><use xlink:href="#l" transform="matrix(7.25347 0 0 -7.25347 450.149 52.2)"/><use xlink:href="#l" transform="matrix(7.25347 0 0 -7.25347 471.677 52.2)"/><use xlink:href="#E" transform="matrix(7.25347 0 0 -7.25347 475.638 52.178)"/><use xlink:href="#k" transform="matrix(7.25347 0 0 -7.25347 477.16 52.098)"/><use xlink:href="#S" transform="matrix(7.25347 0 0 -7.25347 480.657 52.098)"/><use xlink:href="#o" transform="matrix(7.25347 0 0 -7.25347 4.782 60.802)"/><use xlink:href="#H" transform="matrix(7.25347 0 0 -7.25347 6.806 60.802)"/><use xlink:href="#b" transform="matrix(7.25347 0 0 -7.25347 11.702 60.875)"/><use xlink:href="#I" transform="matrix(7.25347 0 0 -7.25347 15.111 60.875)"/><use xlink:href="#M" transform="matrix(7.25347 0 0 -7.25347 17.65 60.882)"/><use xlink:href="#b" transform="matrix(7.25347 0 0 -7.25347 22.981 60.875)"/><use xlink:href="#c" transform="matrix(7.25347 0 0 -7.25347 26.115 60.875)"/><path stroke-width=".28977186" stroke-miterlimit="10" fill="none" stroke="#000" d="M28.472 60.657h2.176"/><use xlink:href="#H" transform="matrix(7.25347 0 0 -7.25347 30.771 60.802)"/><use xlink:href="#O" transform="matrix(7.25347 0 0 -7.25347 35.442 60.904)"/><use xlink:href="#D" transform="matrix(7.25347 0 0 -7.25347 40.556 60.802)"/><use xlink:href="#P" transform="matrix(7.25347 0 0 -7.25347 47.723 61.934)"/><use xlink:href="#k" transform="matrix(7.25347 0 0 -7.25347 49.717 60.802)" fill="#367dbd"/><use xlink:href="#U" transform="matrix(7.25347 0 0 -7.25347 53.373 60.904)" fill="#367dbd"/><use xlink:href="#R" transform="matrix(7.25347 0 0 -7.25347 57 61.934)"/><path stroke-width=".28977186" stroke-miterlimit="10" fill="none" stroke="#000" d="M86.326 63.413v-8.704"/><use xlink:href="#k" transform="matrix(7.25347 0 0 -7.25347 93.96 60.802)"/><use xlink:href="#E" transform="matrix(7.25347 0 0 -7.25347 97.877 60.882)"/><use xlink:href="#m" transform="matrix(7.25347 0 0 -7.25347 99.988 60.802)"/><use xlink:href="#l" transform="matrix(7.25347 0 0 -7.25347 102.983 60.904)"/><use xlink:href="#w" transform="matrix(7.25347 0 0 -7.25347 120.682 60.904)"/><use xlink:href="#E" transform="matrix(7.25347 0 0 -7.25347 124.504 60.882)"/><use xlink:href="#T" transform="matrix(7.25347 0 0 -7.25347 126.028 60.962)"/><use xlink:href="#U" transform="matrix(7.25347 0 0 -7.25347 129.683 60.904)"/><use xlink:href="#k" transform="matrix(7.25347 0 0 -7.25347 147.222 60.802)"/><use xlink:href="#E" transform="matrix(7.25347 0 0 -7.25347 151.14 60.882)"/><use xlink:href="#S" transform="matrix(7.25347 0 0 -7.25347 152.532 60.802)"/><use xlink:href="#l" transform="matrix(7.25347 0 0 -7.25347 156.246 60.904)"/><use xlink:href="#k" transform="matrix(7.25347 0 0 -7.25347 174.459 60.802)"/><use xlink:href="#E" transform="matrix(7.25347 0 0 -7.25347 178.376 60.882)"/><use xlink:href="#k" transform="matrix(7.25347 0 0 -7.25347 179.9 60.802)"/><use xlink:href="#Q" transform="matrix(7.25347 0 0 -7.25347 183.453 60.86)"/><use xlink:href="#S" transform="matrix(7.25347 0 0 -7.25347 200.956 60.802)"/><use xlink:href="#E" transform="matrix(7.25347 0 0 -7.25347 205.003 60.882)"/><use xlink:href="#L" transform="matrix(7.25347 0 0 -7.25347 206.715 60.904)"/><use xlink:href="#T" transform="matrix(7.25347 0 0 -7.25347 210.153 60.962)"/><use xlink:href="#k" transform="matrix(7.25347 0 0 -7.25347 227.721 60.802)"/><use xlink:href="#E" transform="matrix(7.25347 0 0 -7.25347 231.638 60.882)"/><use xlink:href="#Q" transform="matrix(7.25347 0 0 -7.25347 233.089 60.86)"/><use xlink:href="#m" transform="matrix(7.25347 0 0 -7.25347 237.376 60.802)"/><path stroke-width=".28977186" stroke-miterlimit="10" fill="none" stroke="#000" d="M247.613 63.413v-8.704"/><use xlink:href="#k" transform="matrix(7.25347 0 0 -7.25347 257.265 60.802)"/><use xlink:href="#S" transform="matrix(7.25347 0 0 -7.25347 260.76 60.802)"/><use xlink:href="#E" transform="matrix(7.25347 0 0 -7.25347 264.808 60.882)"/><use xlink:href="#L" transform="matrix(7.25347 0 0 -7.25347 266.52 60.904)"/><use xlink:href="#S" transform="matrix(7.25347 0 0 -7.25347 287.73 60.802)"/><use xlink:href="#E" transform="matrix(7.25347 0 0 -7.25347 291.777 60.882)"/><use xlink:href="#n" transform="matrix(7.25347 0 0 -7.25347 293.314 60.904)"/><use xlink:href="#m" transform="matrix(7.25347 0 0 -7.25347 297.514 60.802)"/><use xlink:href="#w" transform="matrix(7.25347 0 0 -7.25347 318.55 60.904)"/><use xlink:href="#m" transform="matrix(7.25347 0 0 -7.25347 322.67 60.802)"/><use xlink:href="#E" transform="matrix(7.25347 0 0 -7.25347 325.999 60.882)"/><use xlink:href="#Q" transform="matrix(7.25347 0 0 -7.25347 327.45 60.86)"/><use xlink:href="#U" transform="matrix(7.25347 0 0 -7.25347 349.08 60.904)"/><use xlink:href="#E" transform="matrix(7.25347 0 0 -7.25347 352.967 60.882)"/><use xlink:href="#n" transform="matrix(7.25347 0 0 -7.25347 354.505 60.904)"/><use xlink:href="#U" transform="matrix(7.25347 0 0 -7.25347 358.146 60.904)"/><path stroke-width=".28977186" stroke-miterlimit="10" fill="none" stroke="#000" d="M370.285 63.413v-8.704"/><use xlink:href="#S" transform="matrix(7.25347 0 0 -7.25347 379.804 60.802)"/><use xlink:href="#E" transform="matrix(7.25347 0 0 -7.25347 383.852 60.882)"/><use xlink:href="#k" transform="matrix(7.25347 0 0 -7.25347 385.375 60.802)"/><use xlink:href="#w" transform="matrix(7.25347 0 0 -7.25347 389.096 60.904)"/><use xlink:href="#l" transform="matrix(7.25347 0 0 -7.25347 410.487 60.904)"/><use xlink:href="#E" transform="matrix(7.25347 0 0 -7.25347 414.447 60.882)"/><use xlink:href="#k" transform="matrix(7.25347 0 0 -7.25347 415.97 60.802)"/><use xlink:href="#n" transform="matrix(7.25347 0 0 -7.25347 419.612 60.904)"/><use xlink:href="#S" transform="matrix(7.25347 0 0 -7.25347 440.995 60.802)"/><use xlink:href="#E" transform="matrix(7.25347 0 0 -7.25347 445.042 60.882)"/><use xlink:href="#U" transform="matrix(7.25347 0 0 -7.25347 446.595 60.904)"/><use xlink:href="#Q" transform="matrix(7.25347 0 0 -7.25347 450.12 60.86)"/><use xlink:href="#l" transform="matrix(7.25347 0 0 -7.25347 471.677 60.904)"/><use xlink:href="#E" transform="matrix(7.25347 0 0 -7.25347 475.638 60.882)"/><use xlink:href="#k" transform="matrix(7.25347 0 0 -7.25347 477.16 60.802)"/><use xlink:href="#Q" transform="matrix(7.25347 0 0 -7.25347 480.715 60.86)"/><path stroke-width=".36257886" stroke-miterlimit="10" fill="none" stroke="#000" d="M.314 64.844h492.497"/><use xlink:href="#H" transform="matrix(7.25347 0 0 -7.25347 202.345 73.148)" fill="#ec008c"/><use xlink:href="#e" transform="matrix(7.25347 0 0 -7.25347 207.27 73.22)" fill="#ec008c"/><use xlink:href="#q" transform="matrix(7.25347 0 0 -7.25347 210.709 73.22)" fill="#ec008c"/><use xlink:href="#r" transform="matrix(7.25347 0 0 -7.25347 214.234 73.22)" fill="#ec008c"/><use xlink:href="#I" transform="matrix(7.25347 0 0 -7.25347 218.165 73.22)" fill="#ec008c"/><use xlink:href="#c" transform="matrix(7.25347 0 0 -7.25347 220.711 73.22)" fill="#ec008c"/><use xlink:href="#J" transform="matrix(7.25347 0 0 -7.25347 224.563 73.228)" fill="#ec008c"/><use xlink:href="#o" transform="matrix(7.25347 0 0 -7.25347 229.364 73.148)" fill="#ec008c"/><use xlink:href="#I" transform="matrix(7.25347 0 0 -7.25347 231.635 73.22)" fill="#ec008c"/><use xlink:href="#o" transform="matrix(7.25347 0 0 -7.25347 234.203 73.148)" fill="#ec008c"/><use xlink:href="#e" transform="matrix(7.25347 0 0 -7.25347 236.313 73.22)" fill="#ec008c"/><use xlink:href="#y" transform="matrix(7.25347 0 0 -7.25347 239.846 73.148)" fill="#ec008c"/><use xlink:href="#K" transform="matrix(7.25347 0 0 -7.25347 245.373 73.25)" fill="#ec008c"/><use xlink:href="#d" transform="matrix(7.25347 0 0 -7.25347 250.073 73.148)" fill="#ec008c"/><use xlink:href="#A" transform="matrix(7.25347 0 0 -7.25347 253.903 73.22)" fill="#ec008c"/><use xlink:href="#p" transform="matrix(7.25347 0 0 -7.25347 256.993 73.148)" fill="#ec008c"/><use xlink:href="#p" transform="matrix(7.25347 0 0 -7.25347 259.01 73.148)" fill="#ec008c"/><use xlink:href="#b" transform="matrix(7.25347 0 0 -7.25347 261.07 73.22)" fill="#ec008c"/><use xlink:href="#y" transform="matrix(7.25347 0 0 -7.25347 264.225 73.148)" fill="#ec008c"/><use xlink:href="#B" transform="matrix(7.25347 0 0 -7.25347 267.938 74.73)" fill="#ec008c"/><use xlink:href="#b" transform="matrix(7.25347 0 0 -7.25347 271.543 73.22)" fill="#ec008c"/><use xlink:href="#k" transform="matrix(7.25347 0 0 -7.25347 276.614 73.148)" fill="#ec008c"/><use xlink:href="#l" transform="matrix(7.25347 0 0 -7.25347 280.197 73.25)" fill="#ec008c"/><use xlink:href="#k" transform="matrix(7.25347 0 0 -7.25347 283.867 73.148)" fill="#ec008c"/><use xlink:href="#l" transform="matrix(7.25347 0 0 -7.25347 287.45 73.25)" fill="#ec008c"/><path stroke-width=".28977186" stroke-miterlimit="10" fill="none" stroke="#000" d="M.314 75.905h492.497"/><symbol id="V"><path d="M.561.174A.3.3 0 0 0 .515.096C.48.057.425.039.342.039H.275C.202.039.189.045.189.08v.473c0 .071.014.085.093.09v.019H0V.643C.074.637.087.623.087.553V.109C.087.039.073.024 0 .019V0h.538l.048.174H.561z"/></symbol><use xlink:href="#M" transform="matrix(7.25347 0 0 -7.25347 4.753 82.222)"/><use xlink:href="#V" transform="matrix(7.25347 0 0 -7.25347 9.99 82.143)"/><use xlink:href="#K" transform="matrix(7.25347 0 0 -7.25347 14.538 82.244)"/><use xlink:href="#F" transform="matrix(7.25347 0 0 -7.25347 19.282 82.143)"/><path stroke-width=".28977186" stroke-miterlimit="10" fill="none" stroke="#000" d="M24.845 81.997h2.176"/><use xlink:href="#M" transform="matrix(7.25347 0 0 -7.25347 27.108 82.222)"/><use xlink:href="#u" transform="matrix(7.25347 0 0 -7.25347 32.345 82.143)"/><use xlink:href="#i" transform="matrix(7.25347 0 0 -7.25347 36.814 82.143)"/><path stroke-width=".28977186" stroke-miterlimit="10" fill="none" stroke="#000" d="M41.557 81.997h2.177"/><use xlink:href="#G" transform="matrix(7.25347 0 0 -7.25347 43.871 82.244)"/><use xlink:href="#k" transform="matrix(7.25347 0 0 -7.25347 47.578 82.143)"/><path stroke-width=".28977186" stroke-miterlimit="10" fill="none" stroke="#000" d="M51.422 81.997h2.176"/><use xlink:href="#H" transform="matrix(7.25347 0 0 -7.25347 53.721 82.143)"/><use xlink:href="#J" transform="matrix(7.25347 0 0 -7.25347 57.972 82.222)"/><use xlink:href="#K" transform="matrix(7.25347 0 0 -7.25347 63.296 82.244)"/><use xlink:href="#P" transform="matrix(7.25347 0 0 -7.25347 70.383 83.274)"/><use xlink:href="#w" transform="matrix(7.25347 0 0 -7.25347 72.472 82.244)" fill="#367dbd"/><use xlink:href="#U" transform="matrix(7.25347 0 0 -7.25347 76.033 82.244)" fill="#367dbd"/><use xlink:href="#R" transform="matrix(7.25347 0 0 -7.25347 79.66 83.274)"/><path stroke-width=".28977186" stroke-miterlimit="10" fill="none" stroke="#000" d="M86.326 84.753V76.05"/><use xlink:href="#m" transform="matrix(7.25347 0 0 -7.25347 94.548 82.143)"/><use xlink:href="#E" transform="matrix(7.25347 0 0 -7.25347 97.877 82.222)"/><use xlink:href="#w" transform="matrix(7.25347 0 0 -7.25347 99.494 82.244)"/><use xlink:href="#U" transform="matrix(7.25347 0 0 -7.25347 103.056 82.244)"/><use xlink:href="#w" transform="matrix(7.25347 0 0 -7.25347 120.682 82.244)"/><use xlink:href="#E" transform="matrix(7.25347 0 0 -7.25347 124.504 82.222)"/><use xlink:href="#S" transform="matrix(7.25347 0 0 -7.25347 125.897 82.143)"/><use xlink:href="#T" transform="matrix(7.25347 0 0 -7.25347 129.654 82.302)"/><use xlink:href="#m" transform="matrix(7.25347 0 0 -7.25347 147.81 82.143)"/><use xlink:href="#E" transform="matrix(7.25347 0 0 -7.25347 151.14 82.222)"/><use xlink:href="#Q" transform="matrix(7.25347 0 0 -7.25347 152.59 82.2)"/><use xlink:href="#m" transform="matrix(7.25347 0 0 -7.25347 156.877 82.143)"/><use xlink:href="#m" transform="matrix(7.25347 0 0 -7.25347 175.047 82.143)"/><use xlink:href="#E" transform="matrix(7.25347 0 0 -7.25347 178.376 82.222)"/><use xlink:href="#n" transform="matrix(7.25347 0 0 -7.25347 179.914 82.244)"/><use xlink:href="#m" transform="matrix(7.25347 0 0 -7.25347 184.113 82.143)"/><path stroke-width=".28977186" stroke-miterlimit="10" fill="none" stroke="#000" d="M174.242 83.26h12.693"/><use xlink:href="#w" transform="matrix(7.25347 0 0 -7.25347 201.185 82.244)"/><use xlink:href="#E" transform="matrix(7.25347 0 0 -7.25347 205.007 82.222)"/><use xlink:href="#T" transform="matrix(7.25347 0 0 -7.25347 206.53 82.302)"/><use xlink:href="#Q" transform="matrix(7.25347 0 0 -7.25347 210.085 82.2)"/><use xlink:href="#m" transform="matrix(7.25347 0 0 -7.25347 228.305 82.143)"/><use xlink:href="#E" transform="matrix(7.25347 0 0 -7.25347 231.635 82.222)"/><use xlink:href="#T" transform="matrix(7.25347 0 0 -7.25347 233.158 82.302)"/><use xlink:href="#k" transform="matrix(7.25347 0 0 -7.25347 236.785 82.143)"/><path stroke-width=".28977186" stroke-miterlimit="10" fill="none" stroke="#000" d="M247.613 84.753V76.05"/><use xlink:href="#m" transform="matrix(7.25347 0 0 -7.25347 257.852 82.143)"/><use xlink:href="#l" transform="matrix(7.25347 0 0 -7.25347 260.848 82.244)"/><use xlink:href="#E" transform="matrix(7.25347 0 0 -7.25347 264.808 82.222)"/><use xlink:href="#S" transform="matrix(7.25347 0 0 -7.25347 266.201 82.143)"/><use xlink:href="#w" transform="matrix(7.25347 0 0 -7.25347 287.954 82.244)"/><use xlink:href="#E" transform="matrix(7.25347 0 0 -7.25347 291.777 82.222)"/><use xlink:href="#L" transform="matrix(7.25347 0 0 -7.25347 293.489 82.244)"/><use xlink:href="#T" transform="matrix(7.25347 0 0 -7.25347 296.927 82.302)"/><use xlink:href="#m" transform="matrix(7.25347 0 0 -7.25347 319.043 82.143)"/><use xlink:href="#U" transform="matrix(7.25347 0 0 -7.25347 322.11 82.244)"/><use xlink:href="#E" transform="matrix(7.25347 0 0 -7.25347 325.999 82.222)"/><use xlink:href="#S" transform="matrix(7.25347 0 0 -7.25347 327.391 82.143)"/><use xlink:href="#n" transform="matrix(7.25347 0 0 -7.25347 349.065 82.244)"/><use xlink:href="#E" transform="matrix(7.25347 0 0 -7.25347 352.967 82.222)"/><use xlink:href="#U" transform="matrix(7.25347 0 0 -7.25347 354.52 82.244)"/><use xlink:href="#l" transform="matrix(7.25347 0 0 -7.25347 358.073 82.244)"/><path stroke-width=".28977186" stroke-miterlimit="10" fill="none" stroke="#000" d="M370.285 84.753V76.05"/><symbol id="W"><path d="M.467.231v.232H.444C.432.383.414.368.334.368H.189V.59c0 .028.005.034.032.034h.136C.47.624.492.609.509.519h.025L.531.662H0V.643C.074.637.087.623.087.553V.12C.087.037.076.024 0 .019V0h.28v.019C.203.023.189.037.189.109v.218h.145c.081 0 .098-.015.11-.096h.023z"/></symbol><use xlink:href="#w" transform="matrix(7.25347 0 0 -7.25347 380.03 82.244)"/><use xlink:href="#E" transform="matrix(7.25347 0 0 -7.25347 383.852 82.222)"/><use xlink:href="#L" transform="matrix(7.25347 0 0 -7.25347 385.564 82.244)"/><use xlink:href="#S" transform="matrix(7.25347 0 0 -7.25347 388.871 82.143)"/><use xlink:href="#l" transform="matrix(7.25347 0 0 -7.25347 410.487 82.244)"/><use xlink:href="#E" transform="matrix(7.25347 0 0 -7.25347 414.447 82.222)"/><use xlink:href="#k" transform="matrix(7.25347 0 0 -7.25347 415.97 82.143)"/><use xlink:href="#Q" transform="matrix(7.25347 0 0 -7.25347 419.525 82.2)"/><use xlink:href="#S" transform="matrix(7.25347 0 0 -7.25347 440.995 82.143)"/><use xlink:href="#E" transform="matrix(7.25347 0 0 -7.25347 445.042 82.222)"/><use xlink:href="#m" transform="matrix(7.25347 0 0 -7.25347 447.153 82.143)"/><use xlink:href="#m" transform="matrix(7.25347 0 0 -7.25347 450.78 82.143)"/><use xlink:href="#l" transform="matrix(7.25347 0 0 -7.25347 471.677 82.244)"/><use xlink:href="#E" transform="matrix(7.25347 0 0 -7.25347 475.638 82.222)"/><use xlink:href="#k" transform="matrix(7.25347 0 0 -7.25347 477.16 82.143)"/><use xlink:href="#T" transform="matrix(7.25347 0 0 -7.25347 480.788 82.302)"/><use xlink:href="#K" transform="matrix(7.25347 0 0 -7.25347 4.87 90.948)"/><use xlink:href="#W" transform="matrix(7.25347 0 0 -7.25347 9.591 90.847)"/><use xlink:href="#M" transform="matrix(7.25347 0 0 -7.25347 13.624 90.927)"/><use xlink:href="#b" transform="matrix(7.25347 0 0 -7.25347 18.955 90.92)"/><use xlink:href="#c" transform="matrix(7.25347 0 0 -7.25347 22.089 90.92)"/><path stroke-width=".28977186" stroke-miterlimit="10" fill="none" stroke="#000" d="M24.446 90.702h2.176"/><use xlink:href="#H" transform="matrix(7.25347 0 0 -7.25347 26.746 90.847)"/><use xlink:href="#J" transform="matrix(7.25347 0 0 -7.25347 30.996 90.926)"/><use xlink:href="#K" transform="matrix(7.25347 0 0 -7.25347 36.32 90.948)"/><use xlink:href="#P" transform="matrix(7.25347 0 0 -7.25347 43.407 91.978)"/><use xlink:href="#S" transform="matrix(7.25347 0 0 -7.25347 45.271 90.847)" fill="#367dbd"/><use xlink:href="#m" transform="matrix(7.25347 0 0 -7.25347 49.616 90.847)" fill="#367dbd"/><use xlink:href="#R" transform="matrix(7.25347 0 0 -7.25347 52.684 91.978)"/><path stroke-width=".28977186" stroke-miterlimit="10" fill="none" stroke="#000" d="M86.326 93.458v-8.704"/><use xlink:href="#m" transform="matrix(7.25347 0 0 -7.25347 94.548 90.847)"/><use xlink:href="#E" transform="matrix(7.25347 0 0 -7.25347 97.877 90.926)"/><use xlink:href="#n" transform="matrix(7.25347 0 0 -7.25347 99.415 90.948)"/><use xlink:href="#l" transform="matrix(7.25347 0 0 -7.25347 102.983 90.948)"/><use xlink:href="#w" transform="matrix(7.25347 0 0 -7.25347 120.682 90.948)"/><use xlink:href="#E" transform="matrix(7.25347 0 0 -7.25347 124.504 90.926)"/><use xlink:href="#l" transform="matrix(7.25347 0 0 -7.25347 125.984 90.948)"/><use xlink:href="#w" transform="matrix(7.25347 0 0 -7.25347 129.749 90.948)"/><use xlink:href="#m" transform="matrix(7.25347 0 0 -7.25347 147.81 90.847)"/><use xlink:href="#E" transform="matrix(7.25347 0 0 -7.25347 151.14 90.926)"/><use xlink:href="#Q" transform="matrix(7.25347 0 0 -7.25347 152.59 90.905)"/><use xlink:href="#U" transform="matrix(7.25347 0 0 -7.25347 156.318 90.948)"/><use xlink:href="#m" transform="matrix(7.25347 0 0 -7.25347 175.047 90.847)"/><use xlink:href="#E" transform="matrix(7.25347 0 0 -7.25347 178.376 90.926)"/><use xlink:href="#U" transform="matrix(7.25347 0 0 -7.25347 179.928 90.948)"/><use xlink:href="#n" transform="matrix(7.25347 0 0 -7.25347 183.54 90.948)"/><use xlink:href="#w" transform="matrix(7.25347 0 0 -7.25347 201.18 90.948)"/><use xlink:href="#E" transform="matrix(7.25347 0 0 -7.25347 205.003 90.926)"/><use xlink:href="#n" transform="matrix(7.25347 0 0 -7.25347 206.541 90.948)"/><use xlink:href="#w" transform="matrix(7.25347 0 0 -7.25347 210.248 90.948)"/><use xlink:href="#m" transform="matrix(7.25347 0 0 -7.25347 228.309 90.847)"/><use xlink:href="#E" transform="matrix(7.25347 0 0 -7.25347 231.638 90.926)"/><use xlink:href="#T" transform="matrix(7.25347 0 0 -7.25347 233.161 91.006)"/><use xlink:href="#U" transform="matrix(7.25347 0 0 -7.25347 236.817 90.948)"/><path stroke-width=".28977186" stroke-miterlimit="10" fill="none" stroke="#000" d="M247.613 93.458v-8.704"/><use xlink:href="#m" transform="matrix(7.25347 0 0 -7.25347 257.852 90.847)"/><use xlink:href="#l" transform="matrix(7.25347 0 0 -7.25347 260.848 90.948)"/><use xlink:href="#E" transform="matrix(7.25347 0 0 -7.25347 264.808 90.926)"/><use xlink:href="#m" transform="matrix(7.25347 0 0 -7.25347 266.92 90.847)"/><use xlink:href="#w" transform="matrix(7.25347 0 0 -7.25347 287.954 90.948)"/><use xlink:href="#E" transform="matrix(7.25347 0 0 -7.25347 291.777 90.926)"/><use xlink:href="#S" transform="matrix(7.25347 0 0 -7.25347 293.17 90.847)"/><use xlink:href="#T" transform="matrix(7.25347 0 0 -7.25347 296.927 91.006)"/><use xlink:href="#m" transform="matrix(7.25347 0 0 -7.25347 319.043 90.847)"/><use xlink:href="#U" transform="matrix(7.25347 0 0 -7.25347 322.11 90.948)"/><use xlink:href="#E" transform="matrix(7.25347 0 0 -7.25347 325.999 90.926)"/><use xlink:href="#m" transform="matrix(7.25347 0 0 -7.25347 328.11 90.847)"/><use xlink:href="#n" transform="matrix(7.25347 0 0 -7.25347 349.065 90.948)"/><use xlink:href="#E" transform="matrix(7.25347 0 0 -7.25347 352.967 90.926)"/><use xlink:href="#l" transform="matrix(7.25347 0 0 -7.25347 354.447 90.948)"/><use xlink:href="#Q" transform="matrix(7.25347 0 0 -7.25347 358.044 90.905)"/><path stroke-width=".28977186" stroke-miterlimit="10" fill="none" stroke="#000" d="M370.285 93.458v-8.704"/><use xlink:href="#w" transform="matrix(7.25347 0 0 -7.25347 380.03 90.948)"/><use xlink:href="#E" transform="matrix(7.25347 0 0 -7.25347 383.852 90.926)"/><use xlink:href="#w" transform="matrix(7.25347 0 0 -7.25347 385.47 90.948)"/><use xlink:href="#m" transform="matrix(7.25347 0 0 -7.25347 389.59 90.847)"/><use xlink:href="#l" transform="matrix(7.25347 0 0 -7.25347 410.487 90.948)"/><use xlink:href="#E" transform="matrix(7.25347 0 0 -7.25347 414.447 90.926)"/><use xlink:href="#k" transform="matrix(7.25347 0 0 -7.25347 415.97 90.847)"/><use xlink:href="#S" transform="matrix(7.25347 0 0 -7.25347 419.467 90.847)"/><use xlink:href="#w" transform="matrix(7.25347 0 0 -7.25347 441.22 90.948)"/><use xlink:href="#E" transform="matrix(7.25347 0 0 -7.25347 445.042 90.926)"/><use xlink:href="#Q" transform="matrix(7.25347 0 0 -7.25347 446.493 90.905)"/><use xlink:href="#l" transform="matrix(7.25347 0 0 -7.25347 450.149 90.948)"/><use xlink:href="#l" transform="matrix(7.25347 0 0 -7.25347 471.677 90.948)"/><use xlink:href="#E" transform="matrix(7.25347 0 0 -7.25347 475.638 90.926)"/><use xlink:href="#k" transform="matrix(7.25347 0 0 -7.25347 477.16 90.847)"/><use xlink:href="#U" transform="matrix(7.25347 0 0 -7.25347 480.817 90.948)"/><path stroke-width=".36257886" stroke-miterlimit="10" fill="none" stroke="#000" d="M.314 94.888h492.497"/><use xlink:href="#H" transform="matrix(7.25347 0 0 -7.25347 202.345 103.193)" fill="#ec008c"/><use xlink:href="#e" transform="matrix(7.25347 0 0 -7.25347 207.27 103.265)" fill="#ec008c"/><use xlink:href="#q" transform="matrix(7.25347 0 0 -7.25347 210.709 103.265)" fill="#ec008c"/><use xlink:href="#r" transform="matrix(7.25347 0 0 -7.25347 214.234 103.265)" fill="#ec008c"/><use xlink:href="#I" transform="matrix(7.25347 0 0 -7.25347 218.165 103.265)" fill="#ec008c"/><use xlink:href="#c" transform="matrix(7.25347 0 0 -7.25347 220.711 103.265)" fill="#ec008c"/><use xlink:href="#J" transform="matrix(7.25347 0 0 -7.25347 224.563 103.272)" fill="#ec008c"/><use xlink:href="#o" transform="matrix(7.25347 0 0 -7.25347 229.364 103.193)" fill="#ec008c"/><use xlink:href="#I" transform="matrix(7.25347 0 0 -7.25347 231.635 103.265)" fill="#ec008c"/><use xlink:href="#o" transform="matrix(7.25347 0 0 -7.25347 234.203 103.193)" fill="#ec008c"/><use xlink:href="#e" transform="matrix(7.25347 0 0 -7.25347 236.313 103.265)" fill="#ec008c"/><use xlink:href="#y" transform="matrix(7.25347 0 0 -7.25347 239.846 103.193)" fill="#ec008c"/><use xlink:href="#K" transform="matrix(7.25347 0 0 -7.25347 245.373 103.294)" fill="#ec008c"/><use xlink:href="#d" transform="matrix(7.25347 0 0 -7.25347 250.073 103.193)" fill="#ec008c"/><use xlink:href="#A" transform="matrix(7.25347 0 0 -7.25347 253.903 103.265)" fill="#ec008c"/><use xlink:href="#p" transform="matrix(7.25347 0 0 -7.25347 256.993 103.193)" fill="#ec008c"/><use xlink:href="#p" transform="matrix(7.25347 0 0 -7.25347 259.01 103.193)" fill="#ec008c"/><use xlink:href="#b" transform="matrix(7.25347 0 0 -7.25347 261.07 103.265)" fill="#ec008c"/><use xlink:href="#y" transform="matrix(7.25347 0 0 -7.25347 264.225 103.193)" fill="#ec008c"/><use xlink:href="#B" transform="matrix(7.25347 0 0 -7.25347 267.938 104.774)" fill="#ec008c"/><use xlink:href="#b" transform="matrix(7.25347 0 0 -7.25347 271.543 103.265)" fill="#ec008c"/><use xlink:href="#k" transform="matrix(7.25347 0 0 -7.25347 276.614 103.193)" fill="#ec008c"/><use xlink:href="#l" transform="matrix(7.25347 0 0 -7.25347 280.197 103.294)" fill="#ec008c"/><use xlink:href="#k" transform="matrix(7.25347 0 0 -7.25347 283.867 103.193)" fill="#ec008c"/><use xlink:href="#k" transform="matrix(7.25347 0 0 -7.25347 287.494 103.193)" fill="#ec008c"/><path stroke-width=".28977186" stroke-miterlimit="10" fill="none" stroke="#000" d="M.314 105.95h492.497"/><use xlink:href="#o" transform="matrix(7.25347 0 0 -7.25347 4.782 112.187)"/><use xlink:href="#H" transform="matrix(7.25347 0 0 -7.25347 6.806 112.187)"/><use xlink:href="#A" transform="matrix(7.25347 0 0 -7.25347 11.789 112.26)"/><use xlink:href="#C" transform="matrix(7.25347 0 0 -7.25347 14.886 112.187)"/><use xlink:href="#c" transform="matrix(7.25347 0 0 -7.25347 17.25 112.26)"/><use xlink:href="#N" transform="matrix(7.25347 0 0 -7.25347 19.478 112.289)"/><use xlink:href="#c" transform="matrix(7.25347 0 0 -7.25347 23.3 112.26)"/><use xlink:href="#b" transform="matrix(7.25347 0 0 -7.25347 25.404 112.26)"/><use xlink:href="#s" transform="matrix(7.25347 0 0 -7.25347 28.48 112.187)"/><use xlink:href="#b" transform="matrix(7.25347 0 0 -7.25347 31.04 112.26)"/><use xlink:href="#e" transform="matrix(7.25347 0 0 -7.25347 34.29 112.26)"/><path stroke-width=".28977186" stroke-miterlimit="10" fill="none" stroke="#000" d="M38.14 112.042h2.177"/><use xlink:href="#H" transform="matrix(7.25347 0 0 -7.25347 40.44 112.187)"/><use xlink:href="#J" transform="matrix(7.25347 0 0 -7.25347 44.69 112.267)"/><use xlink:href="#K" transform="matrix(7.25347 0 0 -7.25347 50.015 112.289)"/><use xlink:href="#P" transform="matrix(7.25347 0 0 -7.25347 57.101 113.319)"/><use xlink:href="#m" transform="matrix(7.25347 0 0 -7.25347 59.683 112.187)" fill="#367dbd"/><use xlink:href="#L" transform="matrix(7.25347 0 0 -7.25347 62.911 112.289)" fill="#367dbd"/><symbol id="X"><path d="M.027 0c.067.033.112.094.112.154 0 .05-.035.089-.08.089C.024.243 0 .22 0 .186 0 .154.023.135.059.135l.019.002.008.002A.014.014 0 0 0 .1.125C.1.093.072.056.018.019L.027 0z"/></symbol><use xlink:href="#X" transform="matrix(7.25347 0 0 -7.25347 66.538 113.21)"/><use xlink:href="#k" transform="matrix(7.25347 0 0 -7.25347 69.976 112.187)" fill="#367dbd"/><use xlink:href="#Q" transform="matrix(7.25347 0 0 -7.25347 73.53 112.245)" fill="#367dbd"/><use xlink:href="#R" transform="matrix(7.25347 0 0 -7.25347 77.259 113.319)"/><path stroke-width=".28977186" stroke-miterlimit="10" fill="none" stroke="#000" d="M86.326 114.798v-8.704"/><use xlink:href="#m" transform="matrix(7.25347 0 0 -7.25347 94.548 112.187)"/><use xlink:href="#E" transform="matrix(7.25347 0 0 -7.25347 97.877 112.267)"/><use xlink:href="#Q" transform="matrix(7.25347 0 0 -7.25347 99.328 112.245)"/><use xlink:href="#U" transform="matrix(7.25347 0 0 -7.25347 103.056 112.289)"/><use xlink:href="#k" transform="matrix(7.25347 0 0 -7.25347 120.588 112.187)"/><use xlink:href="#E" transform="matrix(7.25347 0 0 -7.25347 124.504 112.267)"/><use xlink:href="#T" transform="matrix(7.25347 0 0 -7.25347 126.028 112.347)"/><use xlink:href="#S" transform="matrix(7.25347 0 0 -7.25347 129.524 112.187)"/><use xlink:href="#m" transform="matrix(7.25347 0 0 -7.25347 147.81 112.187)"/><use xlink:href="#E" transform="matrix(7.25347 0 0 -7.25347 151.14 112.267)"/><use xlink:href="#T" transform="matrix(7.25347 0 0 -7.25347 152.662 112.347)"/><use xlink:href="#n" transform="matrix(7.25347 0 0 -7.25347 156.304 112.289)"/><use xlink:href="#m" transform="matrix(7.25347 0 0 -7.25347 175.047 112.187)"/><use xlink:href="#E" transform="matrix(7.25347 0 0 -7.25347 178.376 112.267)"/><use xlink:href="#L" transform="matrix(7.25347 0 0 -7.25347 180.088 112.289)"/><use xlink:href="#L" transform="matrix(7.25347 0 0 -7.25347 183.714 112.289)"/><use xlink:href="#w" transform="matrix(7.25347 0 0 -7.25347 201.18 112.289)"/><use xlink:href="#E" transform="matrix(7.25347 0 0 -7.25347 205.003 112.267)"/><use xlink:href="#l" transform="matrix(7.25347 0 0 -7.25347 206.483 112.289)"/><use xlink:href="#w" transform="matrix(7.25347 0 0 -7.25347 210.248 112.289)"/><path stroke-width=".28977186" stroke-miterlimit="10" fill="none" stroke="#000" d="M200.873 113.304h12.694"/><use xlink:href="#k" transform="matrix(7.25347 0 0 -7.25347 227.721 112.187)"/><use xlink:href="#E" transform="matrix(7.25347 0 0 -7.25347 231.638 112.267)"/><use xlink:href="#l" transform="matrix(7.25347 0 0 -7.25347 233.118 112.289)"/><use xlink:href="#Q" transform="matrix(7.25347 0 0 -7.25347 236.715 112.245)"/><path stroke-width=".28977186" stroke-miterlimit="10" fill="none" stroke="#000" d="M247.613 114.798v-8.704"/><use xlink:href="#L" transform="matrix(7.25347 0 0 -7.25347 257.453 112.289)"/><use xlink:href="#E" transform="matrix(7.25347 0 0 -7.25347 261.182 112.267)"/><use xlink:href="#l" transform="matrix(7.25347 0 0 -7.25347 262.661 112.289)"/><use xlink:href="#Q" transform="matrix(7.25347 0 0 -7.25347 266.259 112.245)"/><use xlink:href="#m" transform="matrix(7.25347 0 0 -7.25347 288.447 112.187)"/><use xlink:href="#E" transform="matrix(7.25347 0 0 -7.25347 291.777 112.267)"/><use xlink:href="#Q" transform="matrix(7.25347 0 0 -7.25347 293.227 112.245)"/><use xlink:href="#m" transform="matrix(7.25347 0 0 -7.25347 297.514 112.187)"/><use xlink:href="#m" transform="matrix(7.25347 0 0 -7.25347 319.043 112.187)"/><use xlink:href="#w" transform="matrix(7.25347 0 0 -7.25347 322.176 112.289)"/><use xlink:href="#E" transform="matrix(7.25347 0 0 -7.25347 325.999 112.267)"/><use xlink:href="#w" transform="matrix(7.25347 0 0 -7.25347 327.616 112.289)"/><use xlink:href="#k" transform="matrix(7.25347 0 0 -7.25347 349.05 112.187)"/><use xlink:href="#E" transform="matrix(7.25347 0 0 -7.25347 352.967 112.267)"/><use xlink:href="#T" transform="matrix(7.25347 0 0 -7.25347 354.49 112.347)"/><use xlink:href="#l" transform="matrix(7.25347 0 0 -7.25347 358.073 112.289)"/><path stroke-width=".28977186" stroke-miterlimit="10" fill="none" stroke="#000" d="M370.285 114.798v-8.704"/><symbol id="Y"><path d="M.219.286H0V.22h.219V0h.066v.22h.219v.066H.285v.22H.219v-.22z"/></symbol><use xlink:href="#m" transform="matrix(7.25347 0 0 -7.25347 380.523 112.187)"/><use xlink:href="#E" transform="matrix(7.25347 0 0 -7.25347 383.852 112.267)"/><use xlink:href="#U" transform="matrix(7.25347 0 0 -7.25347 385.404 112.289)"/><use xlink:href="#k" transform="matrix(7.25347 0 0 -7.25347 389.002 112.187)"/><use xlink:href="#l" transform="matrix(7.25347 0 0 -7.25347 410.487 112.289)"/><use xlink:href="#E" transform="matrix(7.25347 0 0 -7.25347 414.447 112.267)"/><use xlink:href="#m" transform="matrix(7.25347 0 0 -7.25347 416.558 112.187)"/><use xlink:href="#U" transform="matrix(7.25347 0 0 -7.25347 419.626 112.289)"/><use xlink:href="#m" transform="matrix(7.25347 0 0 -7.25347 441.713 112.187)"/><use xlink:href="#E" transform="matrix(7.25347 0 0 -7.25347 445.042 112.267)"/><use xlink:href="#L" transform="matrix(7.25347 0 0 -7.25347 446.754 112.289)"/><use xlink:href="#L" transform="matrix(7.25347 0 0 -7.25347 450.38 112.289)"/><use xlink:href="#l" transform="matrix(7.25347 0 0 -7.25347 471.677 112.289)"/><use xlink:href="#E" transform="matrix(7.25347 0 0 -7.25347 475.638 112.267)"/><use xlink:href="#m" transform="matrix(7.25347 0 0 -7.25347 477.748 112.187)"/><use xlink:href="#Q" transform="matrix(7.25347 0 0 -7.25347 480.715 112.245)"/><use xlink:href="#K" transform="matrix(7.25347 0 0 -7.25347 4.87 120.993)"/><use xlink:href="#H" transform="matrix(7.25347 0 0 -7.25347 9.627 120.891)"/><use xlink:href="#u" transform="matrix(7.25347 0 0 -7.25347 14.43 120.891)"/><use xlink:href="#N" transform="matrix(7.25347 0 0 -7.25347 19.079 120.993)"/><use xlink:href="#c" transform="matrix(7.25347 0 0 -7.25347 22.901 120.964)"/><use xlink:href="#b" transform="matrix(7.25347 0 0 -7.25347 25.005 120.964)"/><use xlink:href="#s" transform="matrix(7.25347 0 0 -7.25347 28.08 120.891)"/><use xlink:href="#b" transform="matrix(7.25347 0 0 -7.25347 30.64 120.964)"/><use xlink:href="#e" transform="matrix(7.25347 0 0 -7.25347 33.89 120.964)"/><use xlink:href="#Y" transform="matrix(7.25347 0 0 -7.25347 37.524 120.891)"/><use xlink:href="#Y" transform="matrix(7.25347 0 0 -7.25347 41.615 120.891)"/><path stroke-width=".28977186" stroke-miterlimit="10" fill="none" stroke="#000" d="M45.924 120.746H48.1"/><use xlink:href="#H" transform="matrix(7.25347 0 0 -7.25347 48.223 120.891)"/><use xlink:href="#J" transform="matrix(7.25347 0 0 -7.25347 52.474 120.971)"/><use xlink:href="#K" transform="matrix(7.25347 0 0 -7.25347 57.798 120.993)"/><use xlink:href="#P" transform="matrix(7.25347 0 0 -7.25347 64.884 122.023)"/><use xlink:href="#m" transform="matrix(7.25347 0 0 -7.25347 67.467 120.891)" fill="#367dbd"/><use xlink:href="#T" transform="matrix(7.25347 0 0 -7.25347 70.506 121.05)" fill="#367dbd"/><use xlink:href="#R" transform="matrix(7.25347 0 0 -7.25347 74.161 122.023)"/><path stroke-width=".28977186" stroke-miterlimit="10" fill="none" stroke="#000" d="M86.326 123.503v-8.704"/><use xlink:href="#m" transform="matrix(7.25347 0 0 -7.25347 94.548 120.891)"/><use xlink:href="#E" transform="matrix(7.25347 0 0 -7.25347 97.877 120.971)"/><use xlink:href="#S" transform="matrix(7.25347 0 0 -7.25347 99.27 120.891)"/><use xlink:href="#w" transform="matrix(7.25347 0 0 -7.25347 103.121 120.993)"/><use xlink:href="#w" transform="matrix(7.25347 0 0 -7.25347 120.682 120.993)"/><use xlink:href="#E" transform="matrix(7.25347 0 0 -7.25347 124.504 120.971)"/><use xlink:href="#w" transform="matrix(7.25347 0 0 -7.25347 126.122 120.993)"/><use xlink:href="#U" transform="matrix(7.25347 0 0 -7.25347 129.683 120.993)"/><use xlink:href="#m" transform="matrix(7.25347 0 0 -7.25347 147.81 120.891)"/><use xlink:href="#E" transform="matrix(7.25347 0 0 -7.25347 151.14 120.971)"/><use xlink:href="#Q" transform="matrix(7.25347 0 0 -7.25347 152.59 120.95)"/><use xlink:href="#n" transform="matrix(7.25347 0 0 -7.25347 156.304 120.993)"/><use xlink:href="#m" transform="matrix(7.25347 0 0 -7.25347 175.047 120.891)"/><use xlink:href="#E" transform="matrix(7.25347 0 0 -7.25347 178.376 120.971)"/><use xlink:href="#n" transform="matrix(7.25347 0 0 -7.25347 179.914 120.993)"/><use xlink:href="#n" transform="matrix(7.25347 0 0 -7.25347 183.54 120.993)"/><use xlink:href="#w" transform="matrix(7.25347 0 0 -7.25347 201.18 120.993)"/><use xlink:href="#E" transform="matrix(7.25347 0 0 -7.25347 205.003 120.971)"/><use xlink:href="#n" transform="matrix(7.25347 0 0 -7.25347 206.541 120.993)"/><use xlink:href="#w" transform="matrix(7.25347 0 0 -7.25347 210.248 120.993)"/><use xlink:href="#m" transform="matrix(7.25347 0 0 -7.25347 228.309 120.891)"/><use xlink:href="#E" transform="matrix(7.25347 0 0 -7.25347 231.638 120.971)"/><use xlink:href="#L" transform="matrix(7.25347 0 0 -7.25347 233.35 120.993)"/><use xlink:href="#L" transform="matrix(7.25347 0 0 -7.25347 236.977 120.993)"/><path stroke-width=".28977186" stroke-miterlimit="10" fill="none" stroke="#000" d="M247.613 123.503v-8.704"/><use xlink:href="#S" transform="matrix(7.25347 0 0 -7.25347 257.134 120.891)"/><use xlink:href="#E" transform="matrix(7.25347 0 0 -7.25347 261.182 120.971)"/><use xlink:href="#U" transform="matrix(7.25347 0 0 -7.25347 262.734 120.993)"/><use xlink:href="#L" transform="matrix(7.25347 0 0 -7.25347 266.52 120.993)"/><path stroke-width=".28977186" stroke-miterlimit="10" fill="none" stroke="#000" d="M257.047 122.008h12.694"/><use xlink:href="#m" transform="matrix(7.25347 0 0 -7.25347 288.447 120.891)"/><use xlink:href="#E" transform="matrix(7.25347 0 0 -7.25347 291.777 120.971)"/><use xlink:href="#k" transform="matrix(7.25347 0 0 -7.25347 293.3 120.891)"/><use xlink:href="#L" transform="matrix(7.25347 0 0 -7.25347 297.115 120.993)"/><use xlink:href="#T" transform="matrix(7.25347 0 0 -7.25347 318.455 121.05)"/><use xlink:href="#E" transform="matrix(7.25347 0 0 -7.25347 322.372 120.971)"/><use xlink:href="#S" transform="matrix(7.25347 0 0 -7.25347 323.764 120.891)"/><use xlink:href="#U" transform="matrix(7.25347 0 0 -7.25347 327.55 120.993)"/><use xlink:href="#k" transform="matrix(7.25347 0 0 -7.25347 349.05 120.891)"/><use xlink:href="#E" transform="matrix(7.25347 0 0 -7.25347 352.967 120.971)"/><use xlink:href="#k" transform="matrix(7.25347 0 0 -7.25347 354.49 120.891)"/><use xlink:href="#l" transform="matrix(7.25347 0 0 -7.25347 358.073 120.993)"/><path stroke-width=".28977186" stroke-miterlimit="10" fill="none" stroke="#000" d="M348.833 122.008h12.694M370.285 123.503v-8.704"/><use xlink:href="#m" transform="matrix(7.25347 0 0 -7.25347 380.523 120.891)"/><use xlink:href="#E" transform="matrix(7.25347 0 0 -7.25347 383.852 120.971)"/><use xlink:href="#n" transform="matrix(7.25347 0 0 -7.25347 385.39 120.993)"/><use xlink:href="#T" transform="matrix(7.25347 0 0 -7.25347 389.002 121.05)"/><use xlink:href="#l" transform="matrix(7.25347 0 0 -7.25347 410.487 120.993)"/><use xlink:href="#E" transform="matrix(7.25347 0 0 -7.25347 414.447 120.971)"/><use xlink:href="#m" transform="matrix(7.25347 0 0 -7.25347 416.558 120.891)"/><use xlink:href="#n" transform="matrix(7.25347 0 0 -7.25347 419.612 120.993)"/><use xlink:href="#m" transform="matrix(7.25347 0 0 -7.25347 441.713 120.891)"/><use xlink:href="#E" transform="matrix(7.25347 0 0 -7.25347 445.042 120.971)"/><use xlink:href="#Q" transform="matrix(7.25347 0 0 -7.25347 446.493 120.95)"/><use xlink:href="#l" transform="matrix(7.25347 0 0 -7.25347 450.149 120.993)"/><use xlink:href="#l" transform="matrix(7.25347 0 0 -7.25347 471.677 120.993)"/><use xlink:href="#E" transform="matrix(7.25347 0 0 -7.25347 475.638 120.971)"/><use xlink:href="#m" transform="matrix(7.25347 0 0 -7.25347 477.748 120.891)"/><use xlink:href="#U" transform="matrix(7.25347 0 0 -7.25347 480.817 120.993)"/><path stroke-width=".36257886" stroke-miterlimit="10" fill="none" stroke="#000" d="M.314 124.933h492.497"/><use xlink:href="#a" transform="matrix(7.25347 0 0 -7.25347 224.994 133.237)"/><use xlink:href="#e" transform="matrix(7.25347 0 0 -7.25347 231.566 133.31)"/><use xlink:href="#s" transform="matrix(7.25347 0 0 -7.25347 235.019 133.237)"/><use xlink:href="#b" transform="matrix(7.25347 0 0 -7.25347 237.579 133.31)"/><use xlink:href="#H" transform="matrix(7.25347 0 0 -7.25347 242.555 133.237)"/><use xlink:href="#b" transform="matrix(7.25347 0 0 -7.25347 247.451 133.31)"/><use xlink:href="#z" transform="matrix(7.25347 0 0 -7.25347 250.672 133.31)"/><use xlink:href="#b" transform="matrix(7.25347 0 0 -7.25347 253.892 133.31)"/><use xlink:href="#y" transform="matrix(7.25347 0 0 -7.25347 257.047 133.237)"/><use xlink:href="#c" transform="matrix(7.25347 0 0 -7.25347 260.652 133.31)"/><use xlink:href="#p" transform="matrix(7.25347 0 0 -7.25347 262.712 133.237)"/><use xlink:href="#t" transform="matrix(7.25347 0 0 -7.25347 264.692 134.818)"/><path stroke-width=".28977186" stroke-miterlimit="10" fill="none" stroke="#000" d="M.314 135.994h492.497"/><symbol id="Z"><path d="M.597.529c0 .102.012.118.094.128v.019H.459V.657C.537.651.553.629.553.529v-.27A.281.281 0 0 0 .53.123C.503.075.439.044.364.044c-.071 0-.12.024-.147.071a.255.255 0 0 0-.025.132v.32c0 .072.011.083.091.09v.019H0V.657C.079.651.09.64.09.567V.255C.09.082.171 0 .341 0 .45 0 .525.035.564.103a.311.311 0 0 1 .033.165v.261z"/></symbol><use xlink:href="#Z" transform="matrix(7.25347 0 0 -7.25347 4.768 142.333)"/><use xlink:href="#K" transform="matrix(7.25347 0 0 -7.25347 10.106 142.333)"/><use xlink:href="#W" transform="matrix(7.25347 0 0 -7.25347 14.828 142.232)"/><use xlink:href="#M" transform="matrix(7.25347 0 0 -7.25347 18.861 142.311)"/><use xlink:href="#b" transform="matrix(7.25347 0 0 -7.25347 24.192 142.304)"/><use xlink:href="#c" transform="matrix(7.25347 0 0 -7.25347 27.326 142.304)"/><path stroke-width=".28977186" stroke-miterlimit="10" fill="none" stroke="#000" d="M29.683 142.087h2.176"/><use xlink:href="#H" transform="matrix(7.25347 0 0 -7.25347 31.983 142.232)"/><use xlink:href="#J" transform="matrix(7.25347 0 0 -7.25347 36.233 142.311)"/><use xlink:href="#K" transform="matrix(7.25347 0 0 -7.25347 41.557 142.333)"/><use xlink:href="#P" transform="matrix(7.25347 0 0 -7.25347 48.644 143.363)"/><use xlink:href="#S" transform="matrix(7.25347 0 0 -7.25347 50.508 142.232)" fill="#367dbd"/><use xlink:href="#w" transform="matrix(7.25347 0 0 -7.25347 54.36 142.333)" fill="#367dbd"/><use xlink:href="#R" transform="matrix(7.25347 0 0 -7.25347 57.921 143.363)"/><path stroke-width=".28977186" stroke-miterlimit="10" fill="none" stroke="#000" d="M86.326 144.843v-8.705"/><use xlink:href="#m" transform="matrix(7.25347 0 0 -7.25347 94.548 142.232)"/><use xlink:href="#E" transform="matrix(7.25347 0 0 -7.25347 97.877 142.311)"/><use xlink:href="#S" transform="matrix(7.25347 0 0 -7.25347 99.27 142.232)"/><use xlink:href="#m" transform="matrix(7.25347 0 0 -7.25347 103.614 142.232)"/><path stroke-width=".28977186" stroke-miterlimit="10" fill="none" stroke="#000" d="M93.742 143.33h12.694"/><use xlink:href="#k" transform="matrix(7.25347 0 0 -7.25347 120.591 142.232)"/><use xlink:href="#E" transform="matrix(7.25347 0 0 -7.25347 124.508 142.311)"/><use xlink:href="#T" transform="matrix(7.25347 0 0 -7.25347 126.031 142.391)"/><use xlink:href="#w" transform="matrix(7.25347 0 0 -7.25347 129.753 142.333)"/><path stroke-width=".28977186" stroke-miterlimit="10" fill="none" stroke="#000" d="M120.374 143.407h12.694"/><use xlink:href="#m" transform="matrix(7.25347 0 0 -7.25347 147.81 142.232)"/><use xlink:href="#E" transform="matrix(7.25347 0 0 -7.25347 151.139 142.311)"/><use xlink:href="#U" transform="matrix(7.25347 0 0 -7.25347 152.691 142.333)"/><use xlink:href="#U" transform="matrix(7.25347 0 0 -7.25347 156.318 142.333)"/><path stroke-width=".28977186" stroke-miterlimit="10" fill="none" stroke="#000" d="M147.004 143.349h12.694"/><use xlink:href="#m" transform="matrix(7.25347 0 0 -7.25347 175.047 142.232)"/><use xlink:href="#E" transform="matrix(7.25347 0 0 -7.25347 178.376 142.311)"/><use xlink:href="#n" transform="matrix(7.25347 0 0 -7.25347 179.914 142.333)"/><use xlink:href="#Q" transform="matrix(7.25347 0 0 -7.25347 183.453 142.29)"/><use xlink:href="#w" transform="matrix(7.25347 0 0 -7.25347 201.18 142.333)"/><use xlink:href="#E" transform="matrix(7.25347 0 0 -7.25347 205.003 142.311)"/><use xlink:href="#w" transform="matrix(7.25347 0 0 -7.25347 206.621 142.333)"/><use xlink:href="#w" transform="matrix(7.25347 0 0 -7.25347 210.248 142.333)"/><use xlink:href="#m" transform="matrix(7.25347 0 0 -7.25347 228.309 142.232)"/><use xlink:href="#E" transform="matrix(7.25347 0 0 -7.25347 231.638 142.311)"/><use xlink:href="#L" transform="matrix(7.25347 0 0 -7.25347 233.35 142.333)"/><use xlink:href="#U" transform="matrix(7.25347 0 0 -7.25347 236.817 142.333)"/><path stroke-width=".28977186" stroke-miterlimit="10" fill="none" stroke="#000" d="M247.613 144.843v-8.705"/><use xlink:href="#m" transform="matrix(7.25347 0 0 -7.25347 257.852 142.232)"/><use xlink:href="#l" transform="matrix(7.25347 0 0 -7.25347 260.848 142.333)"/><use xlink:href="#E" transform="matrix(7.25347 0 0 -7.25347 264.808 142.311)"/><use xlink:href="#Q" transform="matrix(7.25347 0 0 -7.25347 266.259 142.29)"/><use xlink:href="#w" transform="matrix(7.25347 0 0 -7.25347 287.954 142.333)"/><use xlink:href="#E" transform="matrix(7.25347 0 0 -7.25347 291.777 142.311)"/><use xlink:href="#Q" transform="matrix(7.25347 0 0 -7.25347 293.227 142.29)"/><use xlink:href="#S" transform="matrix(7.25347 0 0 -7.25347 296.796 142.232)"/><use xlink:href="#m" transform="matrix(7.25347 0 0 -7.25347 319.043 142.232)"/><use xlink:href="#U" transform="matrix(7.25347 0 0 -7.25347 322.11 142.333)"/><use xlink:href="#E" transform="matrix(7.25347 0 0 -7.25347 325.999 142.311)"/><use xlink:href="#Q" transform="matrix(7.25347 0 0 -7.25347 327.45 142.29)"/><use xlink:href="#n" transform="matrix(7.25347 0 0 -7.25347 349.065 142.333)"/><use xlink:href="#E" transform="matrix(7.25347 0 0 -7.25347 352.967 142.311)"/><use xlink:href="#T" transform="matrix(7.25347 0 0 -7.25347 354.49 142.391)"/><use xlink:href="#U" transform="matrix(7.25347 0 0 -7.25347 358.146 142.333)"/><path stroke-width=".28977186" stroke-miterlimit="10" fill="none" stroke="#000" d="M370.285 144.843v-8.705"/><use xlink:href="#w" transform="matrix(7.25347 0 0 -7.25347 380.03 142.333)"/><use xlink:href="#E" transform="matrix(7.25347 0 0 -7.25347 383.852 142.311)"/><use xlink:href="#l" transform="matrix(7.25347 0 0 -7.25347 385.332 142.333)"/><use xlink:href="#T" transform="matrix(7.25347 0 0 -7.25347 389.002 142.391)"/><use xlink:href="#l" transform="matrix(7.25347 0 0 -7.25347 410.487 142.333)"/><use xlink:href="#E" transform="matrix(7.25347 0 0 -7.25347 414.447 142.311)"/><use xlink:href="#k" transform="matrix(7.25347 0 0 -7.25347 415.97 142.232)"/><use xlink:href="#S" transform="matrix(7.25347 0 0 -7.25347 419.467 142.232)"/><use xlink:href="#w" transform="matrix(7.25347 0 0 -7.25347 441.22 142.333)"/><use xlink:href="#E" transform="matrix(7.25347 0 0 -7.25347 445.042 142.311)"/><use xlink:href="#w" transform="matrix(7.25347 0 0 -7.25347 446.66 142.333)"/><use xlink:href="#Q" transform="matrix(7.25347 0 0 -7.25347 450.12 142.29)"/><use xlink:href="#l" transform="matrix(7.25347 0 0 -7.25347 471.677 142.333)"/><use xlink:href="#E" transform="matrix(7.25347 0 0 -7.25347 475.638 142.311)"/><use xlink:href="#k" transform="matrix(7.25347 0 0 -7.25347 477.16 142.232)"/><use xlink:href="#n" transform="matrix(7.25347 0 0 -7.25347 480.802 142.333)"/><use xlink:href="#V" transform="matrix(7.25347 0 0 -7.25347 4.753 150.936)"/><use xlink:href="#e" transform="matrix(7.25347 0 0 -7.25347 9.308 151.008)"/><use xlink:href="#N" transform="matrix(7.25347 0 0 -7.25347 13.03 151.037)"/><path stroke-width=".28977186" stroke-miterlimit="10" fill="none" stroke="#000" d="M17.193 150.79h2.176"/><use xlink:href="#H" transform="matrix(7.25347 0 0 -7.25347 19.492 150.936)"/><use xlink:href="#J" transform="matrix(7.25347 0 0 -7.25347 23.742 151.016)"/><use xlink:href="#K" transform="matrix(7.25347 0 0 -7.25347 29.067 151.037)"/><use xlink:href="#P" transform="matrix(7.25347 0 0 -7.25347 36.153 152.067)"/><use xlink:href="#k" transform="matrix(7.25347 0 0 -7.25347 38.148 150.936)" fill="#367dbd"/><use xlink:href="#S" transform="matrix(7.25347 0 0 -7.25347 41.644 150.936)" fill="#367dbd"/><use xlink:href="#R" transform="matrix(7.25347 0 0 -7.25347 45.43 152.067)"/><path stroke-width=".28977186" stroke-miterlimit="10" fill="none" stroke="#000" d="M86.326 153.547v-8.704"/><use xlink:href="#m" transform="matrix(7.25347 0 0 -7.25347 94.548 150.936)"/><use xlink:href="#E" transform="matrix(7.25347 0 0 -7.25347 97.877 151.016)"/><use xlink:href="#S" transform="matrix(7.25347 0 0 -7.25347 99.27 150.936)"/><use xlink:href="#U" transform="matrix(7.25347 0 0 -7.25347 103.056 151.037)"/><use xlink:href="#k" transform="matrix(7.25347 0 0 -7.25347 120.588 150.936)"/><use xlink:href="#E" transform="matrix(7.25347 0 0 -7.25347 124.504 151.016)"/><use xlink:href="#T" transform="matrix(7.25347 0 0 -7.25347 126.028 151.095)"/><use xlink:href="#n" transform="matrix(7.25347 0 0 -7.25347 129.669 151.037)"/><use xlink:href="#m" transform="matrix(7.25347 0 0 -7.25347 147.81 150.936)"/><use xlink:href="#E" transform="matrix(7.25347 0 0 -7.25347 151.14 151.016)"/><use xlink:href="#Q" transform="matrix(7.25347 0 0 -7.25347 152.59 150.994)"/><use xlink:href="#m" transform="matrix(7.25347 0 0 -7.25347 156.877 150.936)"/><use xlink:href="#m" transform="matrix(7.25347 0 0 -7.25347 175.047 150.936)"/><use xlink:href="#E" transform="matrix(7.25347 0 0 -7.25347 178.376 151.016)"/><use xlink:href="#n" transform="matrix(7.25347 0 0 -7.25347 179.914 151.037)"/><use xlink:href="#L" transform="matrix(7.25347 0 0 -7.25347 183.714 151.037)"/><use xlink:href="#w" transform="matrix(7.25347 0 0 -7.25347 201.18 151.037)"/><use xlink:href="#E" transform="matrix(7.25347 0 0 -7.25347 205.003 151.016)"/><use xlink:href="#l" transform="matrix(7.25347 0 0 -7.25347 206.483 151.037)"/><use xlink:href="#L" transform="matrix(7.25347 0 0 -7.25347 210.342 151.037)"/><use xlink:href="#m" transform="matrix(7.25347 0 0 -7.25347 228.309 150.936)"/><use xlink:href="#E" transform="matrix(7.25347 0 0 -7.25347 231.638 151.016)"/><use xlink:href="#L" transform="matrix(7.25347 0 0 -7.25347 233.35 151.037)"/><use xlink:href="#w" transform="matrix(7.25347 0 0 -7.25347 236.882 151.037)"/><path stroke-width=".28977186" stroke-miterlimit="10" fill="none" stroke="#000" d="M227.503 152.053h12.694M247.613 153.547v-8.704"/><use xlink:href="#n" transform="matrix(7.25347 0 0 -7.25347 257.28 151.037)"/><use xlink:href="#E" transform="matrix(7.25347 0 0 -7.25347 261.182 151.016)"/><use xlink:href="#m" transform="matrix(7.25347 0 0 -7.25347 263.292 150.936)"/><use xlink:href="#S" transform="matrix(7.25347 0 0 -7.25347 266.201 150.936)"/><use xlink:href="#m" transform="matrix(7.25347 0 0 -7.25347 288.447 150.936)"/><use xlink:href="#E" transform="matrix(7.25347 0 0 -7.25347 291.777 151.016)"/><use xlink:href="#n" transform="matrix(7.25347 0 0 -7.25347 293.314 151.037)"/><use xlink:href="#Q" transform="matrix(7.25347 0 0 -7.25347 296.854 150.994)"/><path stroke-width=".28977186" stroke-miterlimit="10" fill="none" stroke="#000" d="M287.642 152.053h12.694"/><use xlink:href="#T" transform="matrix(7.25347 0 0 -7.25347 318.455 151.095)"/><use xlink:href="#E" transform="matrix(7.25347 0 0 -7.25347 322.372 151.016)"/><use xlink:href="#w" transform="matrix(7.25347 0 0 -7.25347 323.989 151.037)"/><use xlink:href="#l" transform="matrix(7.25347 0 0 -7.25347 327.478 151.037)"/><path stroke-width=".28977186" stroke-miterlimit="10" fill="none" stroke="#000" d="M318.237 152.11h12.694"/><use xlink:href="#k" transform="matrix(7.25347 0 0 -7.25347 349.05 150.936)"/><use xlink:href="#E" transform="matrix(7.25347 0 0 -7.25347 352.967 151.016)"/><use xlink:href="#w" transform="matrix(7.25347 0 0 -7.25347 354.585 151.037)"/><use xlink:href="#U" transform="matrix(7.25347 0 0 -7.25347 358.146 151.037)"/><path stroke-width=".28977186" stroke-miterlimit="10" fill="none" stroke="#000" d="M370.285 153.547v-8.704"/><use xlink:href="#m" transform="matrix(7.25347 0 0 -7.25347 380.523 150.936)"/><use xlink:href="#E" transform="matrix(7.25347 0 0 -7.25347 383.852 151.016)"/><use xlink:href="#k" transform="matrix(7.25347 0 0 -7.25347 385.375 150.936)"/><use xlink:href="#U" transform="matrix(7.25347 0 0 -7.25347 389.03 151.037)"/><path stroke-width=".28977186" stroke-miterlimit="10" fill="none" stroke="#000" d="M379.717 152.053h12.694"/><symbol id="aa"><path d="M.226.701C.161.701.095.657.054.585A.51.51 0 0 1 0 .353C0 .147.094 0 .227 0c.129 0 .225.149.225.35 0 .2-.097.351-.226.351M.294.235A.727.727 0 0 0 .277.071C.266.042.25.028.227.028c-.05 0-.069.059-.069.207v.229c0 .151.019.209.067.209.049 0 .069-.062.069-.209V.235z"/></symbol><symbol id="ab"><path d="M.084.169A.085.085 0 0 1 0 .085C0 .037.036 0 .083 0c.048 0 .086.037.086.083a.086.086 0 0 1-.085.086z"/></symbol><symbol id="ac"><path d="M.252.688 0 .579V.553a.114.114 0 0 1 .02.008c.027.01.052.017.065.017C.11.578.121.556.121.509V.124c0-.082-.02-.099-.119-.1V0h.375v.024C.286.026.269.041.269.118v.57H.252z"/></symbol><symbol id="ad"><path d="M.042.537C.08.598.113.621.165.621c.063 0 .102-.04.102-.103C.267.452.232.417.137.387V.37A.368.368 0 0 0 .289.29.167.167 0 0 0 .338.168C.338.096.3.05.24.05.216.05.197.061.164.093.125.132.095.148.065.148.027.148 0 .124 0 .09 0 .036.061 0 .153 0 .32 0 .452.114.452.26a.192.192 0 0 1-.044.124.192.192 0 0 1-.078.054c.064.039.083.068.083.127C.413.651.352.702.25.702.151.702.076.652.021.549L.042.537z"/></symbol><use xlink:href="#aa" transform="matrix(7.25347 0 0 -7.25347 410.487 151.03)"/><use xlink:href="#ab" transform="matrix(7.25347 0 0 -7.25347 414.237 151.03)"/><use xlink:href="#ac" transform="matrix(7.25347 0 0 -7.25347 416.225 150.936)"/><use xlink:href="#ad" transform="matrix(7.25347 0 0 -7.25347 419.496 151.037)"/><use xlink:href="#m" transform="matrix(7.25347 0 0 -7.25347 441.713 150.936)"/><use xlink:href="#E" transform="matrix(7.25347 0 0 -7.25347 445.043 151.016)"/><use xlink:href="#S" transform="matrix(7.25347 0 0 -7.25347 446.435 150.936)"/><use xlink:href="#Q" transform="matrix(7.25347 0 0 -7.25347 450.12 150.994)"/><path stroke-width=".28977186" stroke-miterlimit="10" fill="none" stroke="#000" d="M440.908 152.034h12.694"/><use xlink:href="#l" transform="matrix(7.25347 0 0 -7.25347 471.677 151.037)"/><use xlink:href="#E" transform="matrix(7.25347 0 0 -7.25347 475.638 151.016)"/><use xlink:href="#m" transform="matrix(7.25347 0 0 -7.25347 477.748 150.936)"/><use xlink:href="#S" transform="matrix(7.25347 0 0 -7.25347 480.657 150.936)"/><path stroke-width=".28977186" stroke-miterlimit="10" fill="none" stroke="#000" d="M471.503 152.053h12.694"/><use xlink:href="#x" transform="matrix(7.25347 0 0 -7.25347 4.782 159.64)"/><use xlink:href="#u" transform="matrix(7.25347 0 0 -7.25347 9.99 159.64)"/><use xlink:href="#W" transform="matrix(7.25347 0 0 -7.25347 14.422 159.64)"/><use xlink:href="#O" transform="matrix(7.25347 0 0 -7.25347 18.614 159.741)"/><use xlink:href="#a" transform="matrix(7.25347 0 0 -7.25347 23.692 159.64)"/><use xlink:href="#j" transform="matrix(7.25347 0 0 -7.25347 30.336 158.233)"/><use xlink:href="#N" transform="matrix(7.25347 0 0 -7.25347 32.773 159.741)"/><use xlink:href="#c" transform="matrix(7.25347 0 0 -7.25347 36.596 159.712)"/><use xlink:href="#b" transform="matrix(7.25347 0 0 -7.25347 38.7 159.712)"/><use xlink:href="#s" transform="matrix(7.25347 0 0 -7.25347 41.775 159.64)"/><use xlink:href="#b" transform="matrix(7.25347 0 0 -7.25347 44.335 159.712)"/><use xlink:href="#e" transform="matrix(7.25347 0 0 -7.25347 47.585 159.712)"/><path stroke-width=".28977186" stroke-miterlimit="10" fill="none" stroke="#000" d="M51.436 159.495h2.177"/><use xlink:href="#H" transform="matrix(7.25347 0 0 -7.25347 53.735 159.64)"/><use xlink:href="#J" transform="matrix(7.25347 0 0 -7.25347 57.986 159.72)"/><use xlink:href="#K" transform="matrix(7.25347 0 0 -7.25347 63.31 159.741)"/><path stroke-width=".28977186" stroke-miterlimit="10" fill="none" stroke="#000" d="M86.326 162.251v-8.704"/><symbol id="ae"><path d="M.461.211H.437C.408.139.396.133.294.133H.143l.162.154c.079.075.114.142.114.218a.177.177 0 0 1-.185.183.185.185 0 0 1-.133-.056.355.355 0 0 1-.087-.148h.028c.031.062.068.09.122.09A.11.11 0 0 0 .263.519a.156.156 0 0 0 .02-.072.29.29 0 0 0-.051-.148A1.806 1.806 0 0 0 0 .023V0h.416l.045.211z"/></symbol><symbol id="af"><path d="M.442.701A.553.553 0 0 1 .171.608.377.377 0 0 1 0 .286C0 .113.092 0 .232 0c.124 0 .215.099.215.235C.447.356.374.434.26.434A.189.189 0 0 1 .176.417c.037.147.12.228.266.258v.026M.205.389c.067 0 .09-.055.09-.214C.295.057.283.027.234.027a.054.054 0 0 0-.051.029.52.52 0 0 0-.027.199.36.36 0 0 0 .013.124c.008.006.022.01.036.01z"/></symbol><symbol id="ag"><path d="M.46.676H.044L0 .454h.025c.019.064.043.085.098.085H.33L.13 0h.095L.46.676z"/></symbol><symbol id="ah"><path d="M.127.557h.278l.043.127H.126L.029.339a.734.734 0 0 0 .18-.027C.298.284.351.227.351.161c0-.056-.044-.1-.1-.1-.023 0-.05.012-.09.042C.118.135.088.148.062.148.026.148 0 .123 0 .088 0 .035.058 0 .147 0c.165 0 .282.1.282.241 0 .104-.064.184-.173.215a.633.633 0 0 1-.151.02l.022.081z"/></symbol><symbol id="ai"><path d="M.393.255v.433h-.08L.254.611A4.633 4.633 0 0 1 0 .257V.144h.248V0h.145v.144h.063v.111H.393m-.143 0H.041L.25.552V.255z"/></symbol><symbol id="aj"><path d="M.15.337A.24.24 0 0 1 .044.28.148.148 0 0 1 0 .17C0 .068.085 0 .212 0c.139 0 .232.08.232.2 0 .087-.043.149-.15.217C.39.451.43.492.43.556.43.645.354.701.235.701.1.701.011.631.011.526c0-.075.04-.13.139-.189m.12.098C.186.478.14.533.14.589c0 .047.036.083.083.083.056 0 .088-.045.088-.123C.311.502.303.479.27.435M.172.319C.281.246.305.214.305.14.305.073.272.032.218.032.157.032.121.085.121.174c0 .055.011.086.051.145z"/></symbol><use xlink:href="#ac" transform="matrix(7.25347 0 0 -7.25347 94.214 159.64)"/><use xlink:href="#ab" transform="matrix(7.25347 0 0 -7.25347 97.667 159.734)"/><use xlink:href="#ad" transform="matrix(7.25347 0 0 -7.25347 99.299 159.741)"/><use xlink:href="#ae" transform="matrix(7.25347 0 0 -7.25347 102.933 159.64)"/><use xlink:href="#ae" transform="matrix(7.25347 0 0 -7.25347 120.493 159.64)"/><use xlink:href="#ab" transform="matrix(7.25347 0 0 -7.25347 124.294 159.734)"/><use xlink:href="#af" transform="matrix(7.25347 0 0 -7.25347 126.013 159.734)"/><use xlink:href="#ag" transform="matrix(7.25347 0 0 -7.25347 129.56 159.64)"/><use xlink:href="#ac" transform="matrix(7.25347 0 0 -7.25347 147.476 159.64)"/><use xlink:href="#ab" transform="matrix(7.25347 0 0 -7.25347 150.929 159.734)"/><use xlink:href="#ah" transform="matrix(7.25347 0 0 -7.25347 152.604 159.698)"/><use xlink:href="#ai" transform="matrix(7.25347 0 0 -7.25347 156.21 159.64)"/><use xlink:href="#ac" transform="matrix(7.25347 0 0 -7.25347 174.713 159.64)"/><use xlink:href="#ab" transform="matrix(7.25347 0 0 -7.25347 178.166 159.734)"/><use xlink:href="#ai" transform="matrix(7.25347 0 0 -7.25347 179.82 159.64)"/><use xlink:href="#ae" transform="matrix(7.25347 0 0 -7.25347 183.432 159.64)"/><use xlink:href="#ae" transform="matrix(7.25347 0 0 -7.25347 200.992 159.64)"/><use xlink:href="#ab" transform="matrix(7.25347 0 0 -7.25347 204.793 159.734)"/><use xlink:href="#af" transform="matrix(7.25347 0 0 -7.25347 206.512 159.734)"/><use xlink:href="#aj" transform="matrix(7.25347 0 0 -7.25347 210.139 159.734)"/><use xlink:href="#ac" transform="matrix(7.25347 0 0 -7.25347 227.975 159.64)"/><use xlink:href="#ab" transform="matrix(7.25347 0 0 -7.25347 231.428 159.734)"/><use xlink:href="#af" transform="matrix(7.25347 0 0 -7.25347 233.147 159.734)"/><use xlink:href="#ad" transform="matrix(7.25347 0 0 -7.25347 236.687 159.741)"/><path stroke-width=".28977186" stroke-miterlimit="10" fill="none" stroke="#000" d="M247.613 162.251v-8.704"/><symbol id="ak"><path d="M.005 0c.14.02.208.045.286.104a.377.377 0 0 1 .156.311c0 .173-.092.286-.232.286C.09.701 0 .602 0 .465 0 .347.073.267.182.267c.038 0 .064.005.091.019C.23.134.149.055.005.026V0m.278.341C.282.328.281.323.278.321A.089.089 0 0 0 .237.312C.175.312.152.371.152.528c0 .116.012.146.061.146A.054.054 0 0 0 .266.64.45.45 0 0 0 .291.471C.291.444.289.412.286.367L.283.341z"/></symbol><use xlink:href="#ad" transform="matrix(7.25347 0 0 -7.25347 257.163 159.741)"/><use xlink:href="#ab" transform="matrix(7.25347 0 0 -7.25347 260.971 159.734)"/><use xlink:href="#ae" transform="matrix(7.25347 0 0 -7.25347 262.61 159.64)"/><use xlink:href="#aj" transform="matrix(7.25347 0 0 -7.25347 266.317 159.734)"/><use xlink:href="#aa" transform="matrix(7.25347 0 0 -7.25347 287.816 159.734)"/><use xlink:href="#ab" transform="matrix(7.25347 0 0 -7.25347 291.566 159.734)"/><use xlink:href="#ak" transform="matrix(7.25347 0 0 -7.25347 293.271 159.734)"/><use xlink:href="#ag" transform="matrix(7.25347 0 0 -7.25347 296.832 159.64)"/><use xlink:href="#af" transform="matrix(7.25347 0 0 -7.25347 318.44 159.734)"/><use xlink:href="#ab" transform="matrix(7.25347 0 0 -7.25347 322.161 159.734)"/><use xlink:href="#ak" transform="matrix(7.25347 0 0 -7.25347 323.866 159.734)"/><use xlink:href="#aa" transform="matrix(7.25347 0 0 -7.25347 327.478 159.734)"/><use xlink:href="#ac" transform="matrix(7.25347 0 0 -7.25347 349.304 159.64)"/><use xlink:href="#ab" transform="matrix(7.25347 0 0 -7.25347 352.757 159.734)"/><use xlink:href="#af" transform="matrix(7.25347 0 0 -7.25347 354.476 159.734)"/><use xlink:href="#ac" transform="matrix(7.25347 0 0 -7.25347 358.37 159.64)"/><path stroke-width=".28977186" stroke-miterlimit="10" fill="none" stroke="#000" d="M370.285 162.251v-8.704"/><use xlink:href="#aa" transform="matrix(7.25347 0 0 -7.25347 379.892 159.734)"/><use xlink:href="#ab" transform="matrix(7.25347 0 0 -7.25347 383.642 159.734)"/><use xlink:href="#ak" transform="matrix(7.25347 0 0 -7.25347 385.346 159.734)"/><use xlink:href="#aj" transform="matrix(7.25347 0 0 -7.25347 388.987 159.734)"/><use xlink:href="#aa" transform="matrix(7.25347 0 0 -7.25347 410.487 159.734)"/><use xlink:href="#ab" transform="matrix(7.25347 0 0 -7.25347 414.237 159.734)"/><use xlink:href="#ac" transform="matrix(7.25347 0 0 -7.25347 416.224 159.64)"/><use xlink:href="#ad" transform="matrix(7.25347 0 0 -7.25347 419.496 159.741)"/><use xlink:href="#ac" transform="matrix(7.25347 0 0 -7.25347 441.38 159.64)"/><use xlink:href="#ab" transform="matrix(7.25347 0 0 -7.25347 444.832 159.734)"/><use xlink:href="#aa" transform="matrix(7.25347 0 0 -7.25347 446.522 159.734)"/><use xlink:href="#ak" transform="matrix(7.25347 0 0 -7.25347 450.163 159.734)"/><use xlink:href="#aa" transform="matrix(7.25347 0 0 -7.25347 471.677 159.734)"/><use xlink:href="#ab" transform="matrix(7.25347 0 0 -7.25347 475.427 159.734)"/><use xlink:href="#ac" transform="matrix(7.25347 0 0 -7.25347 477.415 159.64)"/><use xlink:href="#ad" transform="matrix(7.25347 0 0 -7.25347 480.686 159.741)"/><path stroke-width=".5802717900000001" stroke-miterlimit="10" fill="none" stroke="#000" d="M.314 163.79h492.497"/></svg>